<svg width="334" height="213" viewBox="0 0 334 213" fill="none" xmlns="http://www.w3.org/2000/svg">
<path opacity="0.35" d="M333.98 20.2904V191.73C333.98 192.076 333.97 192.412 333.951 192.758C333.941 193.006 333.911 193.253 333.901 193.5C333.001 203.705 324.428 211.714 313.996 211.714H19.9838C12.4887 211.714 5.96253 207.591 2.55114 201.48C2.46214 201.351 2.40281 201.242 2.34348 201.124C0.840491 198.325 0 195.132 0 191.73V20.2904C0 19.8454 0.00989111 19.4004 0.0494435 18.9555C0.0593316 18.7083 0.0889913 18.4611 0.0988794 18.2139C1.14702 8.16755 9.65078 0.316406 19.9838 0.316406H313.996C317.932 0.316406 321.63 1.47331 324.725 3.45093C327.316 5.10224 329.481 7.30729 331.083 9.92763C331.103 9.97707 331.142 10.0166 331.162 10.0661C332.952 13.0622 333.98 16.5527 333.98 20.2904Z" fill="url(#paint0_linear_177_121)"/>
<path d="M334 19.9838V191.424C334 191.869 333.99 192.314 333.951 192.758C333.941 193.006 333.911 193.253 333.901 193.5C332.853 203.546 324.339 211.398 314.016 211.398H20.0036C15.3463 211.398 11.0747 209.815 7.67319 207.126C7.52487 207.027 7.37655 206.898 7.22823 206.78C2.81814 203.111 0.0198059 197.584 0.0198059 191.424V19.9838C0.0198059 19.6378 0.0296928 19.2917 0.049469 18.9555C0.0593571 18.6786 0.0890189 18.4116 0.108795 18.1348C1.03828 7.95991 9.58159 0 20.0036 0H314.016C317.952 0 321.65 1.13713 324.745 3.13452C325.081 3.34217 325.417 3.5696 325.743 3.80691C325.941 3.96512 326.149 4.11344 326.347 4.29143C331.014 7.92036 334 13.606 334 19.9838Z" fill="url(#paint1_linear_177_121)"/>
<mask id="mask0_177_121" style="mask-type:alpha" maskUnits="userSpaceOnUse" x="0" y="0" width="333" height="213">
<path d="M332.497 20.4187V192.027C332.497 192.472 332.487 192.918 332.448 193.363C332.438 193.611 332.409 193.858 332.399 194.105C331.356 204.162 322.887 212.02 312.617 212.02H20.1368C15.5038 212.02 11.2544 210.437 7.87061 207.745C7.72306 207.646 7.57552 207.517 7.42797 207.398C3.04086 203.726 0.257111 198.193 0.257111 192.027V20.4187C0.257111 20.0723 0.266946 19.7259 0.286619 19.3894C0.296456 19.1122 0.325963 18.845 0.345636 18.5679C1.27027 8.38301 9.76907 0.415283 20.1368 0.415283H312.617C316.532 0.415283 320.211 1.55353 323.29 3.55289C323.624 3.76074 323.959 3.98839 324.284 4.22594C324.48 4.3843 324.687 4.53277 324.884 4.71093C329.526 8.34342 332.497 14.0347 332.497 20.4187Z" fill="url(#paint2_linear_177_121)"/>
</mask>
<g mask="url(#mask0_177_121)">
<path d="M139.916 51.6554L141.864 54.6614C142.606 55.8084 144.139 56.1248 145.276 55.3832L273.07 -27.6274C274.217 -28.369 274.533 -29.9016 273.791 -31.0387L271.843 -34.0447C271.102 -35.1917 269.569 -35.5082 268.432 -34.7666L140.638 48.2341C139.501 48.9856 139.175 50.5084 139.916 51.6554Z" fill="url(#paint3_linear_177_121)"/>
<path d="M179.558 46.7015L181.506 49.7074C182.247 50.8545 183.78 51.1709 184.917 50.4293L312.711 -32.5912C313.858 -33.3328 314.174 -34.8654 313.433 -36.0026L311.485 -39.0085C310.743 -40.1556 309.211 -40.472 308.073 -39.7304L180.28 43.2802C179.143 44.0218 178.816 45.5544 179.558 46.7015Z" fill="url(#paint4_linear_177_121)"/>
<path d="M162.214 75.1891L164.162 78.1951C164.904 79.3421 166.436 79.6585 167.573 78.9169L295.367 -4.09366C296.514 -4.83527 296.831 -6.36792 296.089 -7.50505L294.141 -10.511C293.399 -11.6581 291.867 -11.9745 290.73 -11.2329L162.936 71.7777C161.799 72.5193 161.473 74.0421 162.214 75.1891Z" fill="url(#paint5_linear_177_121)"/>
<path d="M190.712 97.4867L192.66 100.493C193.401 101.64 194.934 101.956 196.071 101.215L323.865 18.204C325.012 17.4624 325.328 15.9297 324.587 14.7926L322.639 11.7866C321.897 10.6396 320.364 10.3232 319.227 11.0648L191.433 94.0753C190.286 94.817 189.96 96.3397 190.712 97.4867Z" fill="url(#paint6_linear_177_121)"/>
<path d="M175.84 71.4711L177.788 74.4771C178.53 75.6241 180.062 75.9405 181.199 75.1989L308.993 -7.81162C310.14 -8.55322 310.456 -10.0859 309.715 -11.223L307.767 -14.229C307.025 -15.376 305.493 -15.6924 304.356 -14.9508L176.562 68.0597C175.425 68.8013 175.098 70.3241 175.84 71.4711Z" fill="url(#paint7_linear_177_121)"/>
<path d="M186.994 62.7992L188.942 65.8052C189.683 66.9522 191.216 67.2687 192.353 66.5271L320.147 -16.4835C321.294 -17.2251 321.61 -18.7578 320.869 -19.8949L318.921 -22.9009C318.179 -24.0479 316.646 -24.3643 315.509 -23.6227L187.716 59.3878C186.569 60.1295 186.252 61.6621 186.994 62.7992Z" fill="url(#paint8_linear_177_121)"/>
<path d="M116.383 113.585L118.331 116.591C119.072 117.738 120.605 118.054 121.742 117.312L249.536 34.3018C250.683 33.5602 250.999 32.0275 250.258 30.8904L248.31 27.8844C247.568 26.7374 246.036 26.421 244.898 27.1626L117.105 110.173C115.968 110.915 115.641 112.447 116.383 113.585Z" fill="url(#paint9_linear_177_121)"/>
<path d="M203.092 101.205L205.04 104.211C205.781 105.358 207.314 105.674 208.451 104.932L336.245 21.9219C337.392 21.1803 337.708 19.6476 336.966 18.5105L335.018 15.5045C334.277 14.3575 332.744 14.0411 331.607 14.7827L203.813 97.7932C202.676 98.5349 202.35 100.058 203.092 101.205Z" fill="url(#paint10_linear_177_121)"/>
<path d="M137.444 125.974L139.392 128.98C140.134 130.127 141.667 130.444 142.804 129.702L270.598 46.6916C271.745 45.95 272.061 44.4173 271.319 43.2802L269.371 40.2742C268.63 39.1272 267.097 38.8107 265.96 39.5524L138.166 122.563C137.019 123.305 136.703 124.837 137.444 125.974Z" fill="url(#paint11_linear_177_121)"/>
<path d="M165.932 154.472L167.88 157.478C168.622 158.625 170.154 158.941 171.291 158.2L299.085 75.1891C300.232 74.4474 300.549 72.9148 299.807 71.7777L297.859 68.7717C297.117 67.6247 295.585 67.3082 294.448 68.0499L166.654 151.06C165.517 151.792 165.19 153.325 165.932 154.472Z" fill="url(#paint12_linear_177_121)"/>
<path d="M200.619 93.7688L202.567 96.7748C203.309 97.9218 204.842 98.2382 205.979 97.4966L333.773 14.4861C334.92 13.7444 335.236 12.2118 334.494 11.0747L332.546 8.06868C331.805 6.92166 330.272 6.60524 329.135 7.34685L201.341 90.3574C200.194 91.099 199.878 92.6218 200.619 93.7688Z" fill="url(#paint13_linear_177_121)"/>
<path d="M245.215 75.1891L247.163 78.1951C247.904 79.3421 249.437 79.6585 250.574 78.9169L378.368 -4.09366C379.515 -4.83527 379.831 -6.36792 379.09 -7.50505L377.142 -10.511C376.4 -11.6581 374.868 -11.9745 373.73 -11.2329L245.937 71.7777C244.79 72.5193 244.473 74.0421 245.215 75.1891Z" fill="url(#paint14_linear_177_121)"/>
<path d="M190.712 104.913L192.66 107.919C193.401 109.066 194.934 109.382 196.071 108.641L323.865 25.63C325.012 24.8884 325.328 23.3557 324.587 22.2186L322.639 19.2126C321.897 18.0656 320.364 17.7492 319.227 18.4908L191.433 101.501C190.286 102.243 189.96 103.776 190.712 104.913Z" fill="url(#paint15_linear_177_121)"/>
<path d="M248.923 108.631L250.871 111.637C251.612 112.784 253.145 113.1 254.282 112.358L382.076 29.3479C383.223 28.6063 383.539 27.0736 382.798 25.9365L380.85 22.9305C380.108 21.7835 378.576 21.4671 377.438 22.2087L249.645 105.219C248.508 105.961 248.181 107.493 248.923 108.631Z" fill="url(#paint16_linear_177_121)"/>
<path d="M170.886 97.4867L172.834 100.493C173.576 101.64 175.108 101.956 176.245 101.215L304.039 18.204C305.186 17.4624 305.503 15.9297 304.761 14.7926L302.813 11.7866C302.071 10.6396 300.539 10.3232 299.402 11.0648L171.608 94.0753C170.471 94.817 170.144 96.3397 170.886 97.4867Z" fill="url(#paint17_linear_177_121)"/>
<path d="M215.481 88.8149L217.429 91.8209C218.171 92.9679 219.704 93.2843 220.841 92.5427L348.634 9.53213C349.781 8.79053 350.098 7.25787 349.356 6.12074L347.408 3.11476C346.667 1.96774 345.134 1.65132 343.997 2.39293L216.203 85.4035C215.066 86.1451 214.74 87.6678 215.481 88.8149Z" fill="url(#paint18_linear_177_121)"/>
<path d="M220.435 118.548L222.383 121.554C223.125 122.701 224.657 123.018 225.795 122.276L353.588 39.2657C354.735 38.524 355.052 36.9914 354.31 35.8543L352.362 32.8483C351.621 31.7013 350.088 31.3848 348.951 32.1264L221.157 115.127C220.02 115.869 219.694 117.401 220.435 118.548Z" fill="url(#paint19_linear_177_121)"/>
<path d="M248.923 133.41L250.871 136.416C251.612 137.563 253.145 137.88 254.282 137.138L382.076 54.1275C383.223 53.3859 383.539 51.8532 382.798 50.7161L380.85 47.7101C380.108 46.5631 378.576 46.2467 377.438 46.9883L249.645 129.999C248.508 130.74 248.181 132.263 248.923 133.41Z" fill="url(#paint20_linear_177_121)"/>
<path d="M170.886 130.928L172.834 133.934C173.576 135.081 175.108 135.398 176.245 134.656L304.039 51.6455C305.186 50.9039 305.503 49.3713 304.761 48.2341L302.813 45.2282C302.071 44.0811 300.539 43.7647 299.402 44.5063L171.608 127.517C170.471 128.258 170.144 129.791 170.886 130.928Z" fill="url(#paint21_linear_177_121)"/>
<path d="M148.588 116.066L150.536 119.072C151.278 120.219 152.811 120.536 153.948 119.794L281.741 36.7837C282.888 36.0421 283.205 34.5095 282.463 33.3723L280.515 30.3663C279.774 29.2193 278.241 28.9029 277.104 29.6445L149.31 112.655C148.173 113.397 147.847 114.919 148.588 116.066Z" fill="url(#paint22_linear_177_121)"/>
<path d="M-100.394 190.395L-98.4459 193.401C-97.7043 194.548 -96.1716 194.865 -95.0345 194.123L32.7592 111.113C33.9063 110.371 34.2227 108.838 33.4811 107.701L31.5331 104.695C30.7915 103.548 29.2588 103.232 28.1217 103.973L-99.672 186.974C-100.819 187.716 -101.145 189.248 -100.394 190.395Z" fill="url(#paint23_linear_177_121)"/>
<path d="M-60.7623 185.431L-58.8144 188.437C-58.0728 189.584 -56.5401 189.901 -55.403 189.159L72.3907 106.149C73.5377 105.407 73.8542 103.874 73.1126 102.737L71.1646 99.7313C70.423 98.5843 68.8903 98.2679 67.7532 99.0095L-60.0306 182.02C-61.1776 182.762 -61.5039 184.294 -60.7623 185.431Z" fill="url(#paint24_linear_177_121)"/>
<path d="M-78.0961 213.929L-76.1482 216.935C-75.4066 218.082 -73.8739 218.398 -72.7368 217.657L55.0569 134.646C56.204 133.905 56.5204 132.372 55.7788 131.235L53.8308 128.229C53.0892 127.082 51.5566 126.765 50.4194 127.507L-77.3743 210.518C-78.5213 211.259 -78.8476 212.782 -78.0961 213.929Z" fill="url(#paint25_linear_177_121)"/>
<path d="M-49.6086 236.227L-47.6606 239.233C-46.919 240.38 -45.3864 240.696 -44.2492 239.954L83.5445 156.944C84.6915 156.202 85.008 154.67 84.2664 153.532L82.3184 150.526C81.5768 149.379 80.0441 149.063 78.907 149.805L-48.8867 232.815C-50.0239 233.557 -50.3502 235.08 -49.6086 236.227Z" fill="url(#paint26_linear_177_121)"/>
<path d="M-64.4704 210.211L-62.5224 213.217C-61.7808 214.364 -60.2482 214.68 -59.111 213.939L68.6827 130.928C69.8297 130.187 70.1461 128.654 69.4045 127.517L67.4566 124.511C66.715 123.364 65.1823 123.047 64.0452 123.789L-63.7485 206.8C-64.8956 207.541 -65.2219 209.064 -64.4704 210.211Z" fill="url(#paint27_linear_177_121)"/>
<path d="M-53.3265 201.539L-51.3785 204.545C-50.6369 205.692 -49.1043 206.009 -47.9671 205.267L79.8266 122.256C80.9736 121.515 81.29 119.982 80.5484 118.845L78.6005 115.839C77.8588 114.692 76.3262 114.376 75.1891 115.117L-52.6047 198.128C-53.7418 198.869 -54.0681 200.392 -53.3265 201.539Z" fill="url(#paint28_linear_177_121)"/>
<path d="M-123.937 252.324L-121.989 255.33C-121.248 256.477 -119.715 256.794 -118.578 256.052L9.21571 173.042C10.3627 172.3 10.6791 170.767 9.93753 169.63L7.98959 166.624C7.24798 165.477 5.71532 165.161 4.57819 165.902L-123.206 248.913C-124.353 249.655 -124.679 251.187 -123.937 252.324Z" fill="url(#paint29_linear_177_121)"/>
<path d="M-37.2188 239.944L-35.2709 242.95C-34.5293 244.098 -32.9966 244.414 -31.8595 243.672L95.9342 160.662C97.0813 159.92 97.3977 158.388 96.6561 157.25L94.7081 154.244C93.9665 153.097 92.4339 152.781 91.2967 153.523L-36.497 236.523C-37.644 237.275 -37.9604 238.797 -37.2188 239.944Z" fill="url(#paint30_linear_177_121)"/>
<path d="M-102.876 264.714L-100.928 267.72C-100.186 268.867 -98.6535 269.184 -97.5164 268.442L30.2773 185.431C31.4243 184.69 31.7407 183.157 30.9991 182.02L29.0512 179.014C28.3096 177.867 26.7769 177.551 25.6398 178.292L-102.154 261.303C-103.291 262.044 -103.617 263.577 -102.876 264.714Z" fill="url(#paint31_linear_177_121)"/>
<path d="M-74.3882 293.212L-72.4402 296.218C-71.6986 297.365 -70.1659 297.681 -69.0288 296.939L58.7649 213.929C59.9119 213.187 60.2284 211.655 59.4868 210.518L57.5388 207.512C56.7972 206.365 55.2645 206.048 54.1274 206.79L-73.6564 289.79C-74.8034 290.532 -75.1298 292.065 -74.3882 293.212Z" fill="url(#paint32_linear_177_121)"/>
<path d="M-39.7007 232.509L-37.7527 235.515C-37.0111 236.662 -35.4785 236.978 -34.3413 236.236L93.4524 153.226C94.5994 152.484 94.9158 150.952 94.1742 149.815L92.2263 146.809C91.4846 145.662 89.952 145.345 88.8149 146.087L-38.9789 229.097C-40.116 229.839 -40.4423 231.362 -39.7007 232.509Z" fill="url(#paint33_linear_177_121)"/>
<path d="M4.8946 213.929L6.84255 216.935C7.58416 218.082 9.11681 218.398 10.2539 217.657L138.048 134.646C139.195 133.905 139.511 132.372 138.769 131.235L136.822 128.229C136.08 127.082 134.547 126.765 133.41 127.507L5.61642 210.518C4.47929 211.259 4.15299 212.782 4.8946 213.929Z" fill="url(#paint34_linear_177_121)"/>
<path d="M-49.6085 243.653L-47.6606 246.658C-46.919 247.806 -45.3863 248.122 -44.2492 247.38L83.5445 164.37C84.6916 163.628 85.008 162.096 84.2664 160.958L82.3184 157.952C81.5768 156.805 80.0442 156.489 78.907 157.231L-48.8867 240.241C-50.0238 240.983 -50.3501 242.515 -49.6085 243.653Z" fill="url(#paint35_linear_177_121)"/>
<path d="M8.61252 247.37L10.5605 250.376C11.3021 251.523 12.8347 251.84 13.9719 251.098L141.766 168.088C142.913 167.346 143.229 165.813 142.487 164.676L140.539 161.67C139.798 160.523 138.265 160.207 137.128 160.949L9.33435 243.959C8.19722 244.701 7.87092 246.233 8.61252 247.37Z" fill="url(#paint36_linear_177_121)"/>
<path d="M-69.4342 236.227L-67.4862 239.233C-66.7446 240.38 -65.212 240.696 -64.0749 239.954L63.7189 156.944C64.8659 156.202 65.1823 154.67 64.4407 153.532L62.4928 150.526C61.7511 149.379 60.2185 149.063 59.0814 149.805L-68.7025 232.815C-69.8495 233.557 -70.1758 235.08 -69.4342 236.227Z" fill="url(#paint37_linear_177_121)"/>
<path d="M-24.8389 227.555L-22.8909 230.561C-22.1493 231.708 -20.6167 232.024 -19.4795 231.283L108.314 148.272C109.461 147.53 109.778 145.998 109.036 144.861L107.088 141.855C106.346 140.708 104.814 140.391 103.677 141.133L-24.1171 224.143C-25.2542 224.885 -25.5805 226.408 -24.8389 227.555Z" fill="url(#paint38_linear_177_121)"/>
<path d="M-19.8751 257.278L-17.9271 260.284C-17.1855 261.431 -15.6529 261.748 -14.5157 261.006L113.278 177.996C114.425 177.254 114.741 175.721 114 174.584L112.052 171.578C111.31 170.431 109.778 170.115 108.64 170.856L-19.1533 253.867C-20.3003 254.609 -20.6266 256.141 -19.8751 257.278Z" fill="url(#paint39_linear_177_121)"/>
<path d="M8.61252 272.15L10.5605 275.156C11.3021 276.303 12.8347 276.619 13.9719 275.878L141.766 192.867C142.913 192.126 143.229 190.593 142.487 189.456L140.539 186.45C139.798 185.303 138.265 184.986 137.128 185.728L9.33435 268.739C8.19722 269.48 7.87092 271.003 8.61252 272.15Z" fill="url(#paint40_linear_177_121)"/>
<path d="M-69.4342 269.668L-67.4862 272.674C-66.7446 273.821 -65.212 274.138 -64.0749 273.396L63.7189 190.385C64.8659 189.644 65.1823 188.111 64.4407 186.974L62.4928 183.968C61.7511 182.821 60.2185 182.505 59.0814 183.246L-68.7025 266.257C-69.8495 266.998 -70.1758 268.531 -69.4342 269.668Z" fill="url(#paint41_linear_177_121)"/>
<path d="M-91.7318 254.806L-89.7839 257.812C-89.0423 258.959 -87.5096 259.276 -86.3725 258.534L41.4212 175.524C42.5683 174.782 42.8847 173.249 42.1431 172.112L40.1951 169.106C39.4535 167.959 37.9209 167.643 36.7837 168.384L-91.0001 251.395C-92.1471 252.137 -92.4734 253.659 -91.7318 254.806Z" fill="url(#paint42_linear_177_121)"/>
</g>
<g clip-path="url(#clip0_177_121)">
<path d="M25.3706 153.188C24.2928 153.188 23.4029 152.832 22.7008 152.12C21.9987 151.408 21.6527 150.538 21.6527 149.5C21.6527 148.461 21.9987 147.591 22.7008 146.879C23.4029 146.167 24.2928 145.811 25.3706 145.811C26.0232 145.811 26.6165 145.969 27.1603 146.276C27.7042 146.592 28.1294 147.008 28.4359 147.532L27.6152 148.006C27.4075 147.611 27.1109 147.304 26.7055 147.067C26.3001 146.83 25.8551 146.721 25.3706 146.721C24.5499 146.721 23.8775 146.988 23.3633 147.512C22.8491 148.036 22.5821 148.699 22.5821 149.49C22.5821 150.271 22.8392 150.933 23.3633 151.457C23.8775 151.981 24.5499 152.248 25.3706 152.248C25.8551 152.248 26.3001 152.13 26.7055 151.902C27.1109 151.665 27.4075 151.358 27.6152 150.973L28.4359 151.438C28.1393 151.962 27.7141 152.387 27.1702 152.703C26.6264 153.03 26.0232 153.188 25.3706 153.188Z" fill="white"/>
<path d="M33.6074 147.967H34.4874V153.049H33.6074V152.179C33.1624 152.852 32.5296 153.188 31.6891 153.188C30.9771 153.188 30.374 152.931 29.8697 152.407C29.3654 151.892 29.1182 151.26 29.1182 150.508C29.1182 149.757 29.3654 149.134 29.8697 148.61C30.374 148.095 30.9771 147.828 31.6891 147.828C32.5296 147.828 33.1723 148.165 33.6074 148.837V147.967ZM31.7978 152.328C32.312 152.328 32.7471 152.15 33.0932 151.803C33.4393 151.457 33.6074 151.022 33.6074 150.508C33.6074 149.994 33.4393 149.559 33.0932 149.213C32.7471 148.867 32.3219 148.689 31.7978 148.689C31.2935 148.689 30.8585 148.867 30.5223 149.213C30.1861 149.559 30.0081 149.994 30.0081 150.508C30.0081 151.022 30.1762 151.457 30.5223 151.803C30.8585 152.159 31.2837 152.328 31.7978 152.328Z" fill="white"/>
<path d="M36.7122 148.827C36.999 148.194 37.5329 147.878 38.2943 147.878V148.807C37.8592 148.788 37.4835 148.906 37.177 149.153C36.8704 149.401 36.7122 149.806 36.7122 150.36V153.049H35.8322V147.967H36.7122V148.827V148.827Z" fill="white"/>
<path d="M43.0999 145.94H43.98V153.049H43.0999V152.179C42.655 152.852 42.0221 153.188 41.1817 153.188C40.4697 153.188 39.8665 152.931 39.3622 152.407C38.858 151.892 38.6107 151.26 38.6107 150.508C38.6107 149.757 38.858 149.134 39.3622 148.61C39.8665 148.095 40.4697 147.828 41.1817 147.828C42.0221 147.828 42.6649 148.165 43.0999 148.837V145.94ZM41.2904 152.328C41.8046 152.328 42.2397 152.15 42.5858 151.803C42.9318 151.457 43.0999 151.022 43.0999 150.508C43.0999 149.994 42.9318 149.559 42.5858 149.213C42.2397 148.867 41.8145 148.689 41.2904 148.689C40.7861 148.689 40.3511 148.867 40.0149 149.213C39.6787 149.559 39.5007 149.994 39.5007 150.508C39.5007 151.022 39.6688 151.457 40.0149 151.803C40.3511 152.159 40.7762 152.328 41.2904 152.328Z" fill="white"/>
<path d="M52.3552 145.94H53.2946V153.049H52.3552V149.846H48.9042V153.049H47.955V145.94H48.9042V148.956H52.3552V145.94V145.94Z" fill="white"/>
<path d="M59.0099 152.407C58.4858 152.921 57.853 153.178 57.1114 153.178C56.3698 153.178 55.7369 152.921 55.2129 152.407C54.6888 151.892 54.4317 151.26 54.4317 150.508C54.4317 149.757 54.6888 149.124 55.2129 148.61C55.7369 148.095 56.3599 147.838 57.1114 147.838C57.8629 147.838 58.4858 148.095 59.0099 148.61C59.534 149.124 59.791 149.757 59.791 150.508C59.791 151.26 59.534 151.892 59.0099 152.407ZM57.1114 152.318C57.6157 152.318 58.0507 152.15 58.3869 151.803C58.733 151.457 58.9011 151.032 58.9011 150.518C58.9011 150.004 58.733 149.569 58.3869 149.223C58.0409 148.877 57.6157 148.708 57.1114 148.708C56.6071 148.708 56.1819 148.877 55.8358 149.223C55.4897 149.569 55.3216 150.004 55.3216 150.518C55.3216 151.032 55.4897 151.467 55.8358 151.803C56.1819 152.15 56.6071 152.318 57.1114 152.318Z" fill="white"/>
<path d="M60.8392 153.049V145.633H61.7192V153.049H60.8392Z" fill="white"/>
<path d="M67.2862 145.94H68.1663V153.049H67.2862V152.179C66.8413 152.852 66.2084 153.188 65.3679 153.188C64.656 153.188 64.0528 152.931 63.5485 152.407C63.0442 151.892 62.797 151.26 62.797 150.508C62.797 149.757 63.0442 149.134 63.5485 148.61C64.0528 148.095 64.656 147.828 65.3679 147.828C66.2084 147.828 66.8511 148.165 67.2862 148.837V145.94ZM65.4767 152.328C65.9909 152.328 66.426 152.15 66.772 151.803C67.1181 151.457 67.2862 151.022 67.2862 150.508C67.2862 149.994 67.1181 149.559 66.772 149.213C66.426 148.867 66.0008 148.689 65.4767 148.689C64.9724 148.689 64.5373 148.867 64.2011 149.213C63.8649 149.559 63.687 149.994 63.687 150.508C63.687 151.022 63.8551 151.457 64.2011 151.803C64.5373 152.159 64.9625 152.328 65.4767 152.328Z" fill="white"/>
<path d="M70.1241 150.914C70.2131 151.368 70.4207 151.724 70.747 151.972C71.0734 152.219 71.4788 152.347 71.9633 152.347C72.6357 152.347 73.1202 152.1 73.4267 151.606L74.1782 152.031C73.6838 152.792 72.9422 153.178 71.9435 153.178C71.1327 153.178 70.4801 152.931 69.9758 152.417C69.4715 151.902 69.2144 151.269 69.2144 150.498C69.2144 149.737 69.4616 149.094 69.956 148.59C70.4504 148.086 71.0931 147.828 71.8743 147.828C72.6159 147.828 73.229 148.095 73.6937 148.619C74.1683 149.144 74.3957 149.776 74.3957 150.518C74.3957 150.647 74.3859 150.775 74.3661 150.914H70.1241ZM71.8842 148.669C71.4095 148.669 71.014 148.807 70.7075 149.074C70.401 149.341 70.2032 149.697 70.134 150.142H73.5256C73.4465 149.658 73.2586 149.292 72.9521 149.045C72.6456 148.797 72.2896 148.669 71.8842 148.669Z" fill="white"/>
<path d="M76.3141 148.827C76.6008 148.194 77.1348 147.878 77.8962 147.878V148.807C77.4611 148.788 77.0853 148.906 76.7788 149.153C76.4723 149.401 76.3141 149.806 76.3141 150.36V153.049H75.434V147.967H76.3141V148.827Z" fill="white"/>
<path d="M83.8389 147.838C84.4322 147.838 84.9167 148.026 85.2726 148.402C85.6286 148.778 85.8066 149.292 85.8066 149.935V153.059H84.9266V149.994C84.9266 149.579 84.8178 149.262 84.5904 149.035C84.3629 148.807 84.0564 148.699 83.6609 148.699C83.2159 148.699 82.8698 148.837 82.593 149.114C82.326 149.391 82.1876 149.806 82.1876 150.38V153.069H81.3075V147.987H82.1876V148.718C82.5534 148.125 83.0973 147.838 83.8389 147.838Z" fill="white"/>
<path d="M91.2451 147.967H92.1251V153.049H91.2451V152.179C90.8001 152.852 90.1673 153.188 89.3268 153.188C88.6148 153.188 88.0117 152.931 87.5074 152.407C87.0031 151.892 86.7559 151.26 86.7559 150.508C86.7559 149.757 87.0031 149.134 87.5074 148.61C88.0117 148.095 88.6148 147.828 89.3268 147.828C90.1673 147.828 90.81 148.165 91.2451 148.837V147.967ZM89.4355 152.328C89.9497 152.328 90.3848 152.15 90.7309 151.803C91.077 151.457 91.2451 151.022 91.2451 150.508C91.2451 149.994 91.077 149.559 90.7309 149.213C90.3848 148.867 89.9596 148.689 89.4355 148.689C88.9312 148.689 88.4962 148.867 88.16 149.213C87.8238 149.559 87.6458 149.994 87.6458 150.508C87.6458 151.022 87.8139 151.457 88.16 151.803C88.5061 152.159 88.9312 152.328 89.4355 152.328Z" fill="white"/>
<path d="M98.9578 147.838C99.5313 147.838 99.9861 148.026 100.342 148.392C100.698 148.758 100.866 149.262 100.866 149.895V153.059H99.9861V149.925C99.9861 149.529 99.8873 149.223 99.6796 149.015C99.472 148.797 99.205 148.689 98.8688 148.689C98.493 148.689 98.1865 148.817 97.9591 149.064C97.7316 149.312 97.6229 149.707 97.6229 150.231V153.059H96.7428V149.925C96.7428 149.529 96.644 149.223 96.4561 149.015C96.2583 148.797 96.0012 148.689 95.665 148.689C95.2893 148.689 94.9828 148.817 94.7356 149.074C94.4884 149.331 94.3598 149.717 94.3598 150.231V153.059H93.4798V147.977H94.3598V148.659C94.7059 148.115 95.2102 147.848 95.8727 147.848C96.555 147.848 97.0593 148.135 97.3658 148.708C97.7119 148.125 98.2458 147.838 98.9578 147.838Z" fill="white"/>
<path d="M102.725 150.914C102.814 151.368 103.022 151.724 103.348 151.972C103.674 152.219 104.08 152.347 104.564 152.347C105.237 152.347 105.721 152.1 106.028 151.606L106.779 152.031C106.285 152.792 105.543 153.178 104.545 153.178C103.734 153.178 103.081 152.931 102.577 152.417C102.073 151.902 101.815 151.269 101.815 150.498C101.815 149.737 102.063 149.094 102.557 148.59C103.051 148.086 103.694 147.828 104.475 147.828C105.217 147.828 105.83 148.095 106.295 148.619C106.769 149.144 106.997 149.776 106.997 150.518C106.997 150.647 106.987 150.775 106.967 150.914H102.725ZM104.475 148.669C104.001 148.669 103.605 148.807 103.299 149.074C102.992 149.341 102.794 149.697 102.725 150.142H106.117C106.038 149.658 105.85 149.292 105.543 149.045C105.237 148.797 104.881 148.669 104.475 148.669Z" fill="white"/>
<path d="M196.741 155.868H200.044V156.757H195.792V149.648H199.994V150.538H196.741V152.723H199.737V153.603H196.741V155.868Z" fill="white"/>
<path d="M205.502 156.767H204.464L203.04 154.849L201.616 156.767H200.578L202.526 154.147L200.696 151.685H201.745L203.05 153.445L204.365 151.685H205.403L203.574 154.147L205.502 156.767Z" fill="white"/>
<path d="M209.131 151.556C209.843 151.556 210.446 151.813 210.95 152.337C211.455 152.862 211.702 153.484 211.702 154.236C211.702 154.987 211.455 155.61 210.95 156.134C210.446 156.649 209.843 156.916 209.131 156.916C208.29 156.916 207.648 156.579 207.213 155.907V158.814H206.333V151.705H207.213V152.575C207.648 151.892 208.29 151.556 209.131 151.556ZM209.022 156.045C209.526 156.045 209.962 155.867 210.298 155.521C210.644 155.175 210.812 154.74 210.812 154.226C210.812 153.712 210.644 153.277 210.298 152.931C209.952 152.585 209.526 152.407 209.022 152.407C208.508 152.407 208.073 152.585 207.727 152.931C207.381 153.277 207.213 153.712 207.213 154.226C207.213 154.74 207.381 155.175 207.727 155.521C208.073 155.867 208.508 156.045 209.022 156.045Z" fill="white"/>
<path d="M213.205 150.755C213.037 150.755 212.888 150.696 212.78 150.587C212.661 150.469 212.612 150.33 212.612 150.172C212.612 150.004 212.671 149.865 212.78 149.747C212.898 149.628 213.037 149.569 213.205 149.569C213.363 149.569 213.501 149.628 213.62 149.747C213.739 149.865 213.788 150.004 213.788 150.172C213.788 150.33 213.729 150.469 213.62 150.587C213.511 150.706 213.373 150.755 213.205 150.755ZM212.76 156.767V151.685H213.64V156.767H212.76Z" fill="white"/>
<path d="M215.875 152.535C216.161 151.902 216.695 151.586 217.457 151.586V152.515C217.022 152.496 216.646 152.614 216.339 152.862C216.033 153.109 215.875 153.514 215.875 154.068V156.757H214.995V151.675H215.875V152.535Z" fill="white"/>
<path d="M221.985 151.685H222.935L220.858 157.084C220.641 157.657 220.334 158.102 219.949 158.399C219.563 158.695 219.108 158.834 218.604 158.804V157.984C219.227 158.033 219.682 157.687 219.968 156.945L220.067 156.757L217.852 151.695H218.801L220.492 155.591L221.985 151.685Z" fill="white"/>
<path d="M229.085 149.648C230.054 149.648 230.855 149.994 231.498 150.676C232.141 151.359 232.457 152.209 232.457 153.198C232.457 154.196 232.141 155.037 231.498 155.719C230.855 156.401 230.054 156.748 229.085 156.748H226.307V149.638H229.085V149.648ZM229.085 155.867C229.807 155.867 230.4 155.61 230.865 155.106C231.33 154.602 231.557 153.959 231.557 153.208C231.557 152.446 231.33 151.813 230.865 151.309C230.4 150.805 229.807 150.548 229.085 150.548H227.256V155.877H229.085V155.867Z" fill="white"/>
<path d="M237.717 151.685H238.597V156.767H237.717V155.897C237.272 156.57 236.64 156.906 235.799 156.906C235.087 156.906 234.484 156.649 233.98 156.125C233.475 155.61 233.228 154.978 233.228 154.226C233.228 153.475 233.475 152.852 233.98 152.328C234.484 151.813 235.087 151.546 235.799 151.546C236.64 151.546 237.282 151.883 237.717 152.555V151.685ZM235.908 156.045C236.422 156.045 236.857 155.867 237.203 155.521C237.549 155.175 237.717 154.74 237.717 154.226C237.717 153.712 237.549 153.277 237.203 152.931C236.857 152.585 236.432 152.407 235.908 152.407C235.404 152.407 234.969 152.585 234.632 152.931C234.296 153.277 234.118 153.712 234.118 154.226C234.118 154.74 234.286 155.175 234.632 155.521C234.978 155.867 235.404 156.045 235.908 156.045Z" fill="white"/>
<path d="M242.711 152.535H241.356V155.294C241.356 155.541 241.406 155.719 241.505 155.828C241.603 155.937 241.752 155.986 241.959 155.996C242.167 155.996 242.414 155.996 242.711 155.976V156.767C241.94 156.866 241.376 156.807 241.01 156.579C240.654 156.352 240.476 155.927 240.476 155.294V152.535H239.468V151.685H240.476V150.528L241.356 150.261V151.685H242.711V152.535Z" fill="white"/>
<path d="M244.125 154.631C244.214 155.086 244.422 155.442 244.748 155.689C245.074 155.937 245.48 156.065 245.964 156.065C246.636 156.065 247.121 155.818 247.428 155.324L248.179 155.749C247.685 156.51 246.943 156.896 245.944 156.896C245.133 156.896 244.481 156.649 243.977 156.134C243.472 155.62 243.215 154.987 243.215 154.216C243.215 153.455 243.462 152.812 243.957 152.308C244.451 151.803 245.094 151.546 245.875 151.546C246.617 151.546 247.23 151.813 247.694 152.337C248.169 152.862 248.397 153.494 248.397 154.236C248.397 154.364 248.387 154.493 248.367 154.631H244.125V154.631ZM245.875 152.387C245.4 152.387 245.005 152.525 244.698 152.792C244.392 153.059 244.194 153.415 244.125 153.86H247.517C247.437 153.376 247.25 153.01 246.943 152.763C246.646 152.515 246.29 152.387 245.875 152.387Z" fill="white"/>
<path d="M309.416 170.848H306.321C305.362 170.848 304.63 171.115 304.215 172.064L298.262 185.552H302.474C302.474 185.552 303.167 183.742 303.325 183.346H308.467C308.595 183.861 308.951 185.552 308.951 185.552H312.679L309.416 170.848ZM304.472 180.341C304.798 179.49 306.054 176.227 306.054 176.227C306.054 176.227 306.4 175.357 306.598 174.823L306.865 176.099C306.865 176.099 307.646 179.599 307.794 180.341H304.472Z" fill="white"/>
<path d="M292.923 174.922C292.913 175.614 293.783 176.069 295.177 176.751C297.491 177.799 298.559 179.075 298.539 180.756C298.509 183.811 295.78 185.779 291.558 185.779C289.768 185.759 288.028 185.393 287.099 184.998L287.662 181.695L288.176 181.933C289.482 182.476 290.342 182.704 291.954 182.704C293.101 182.704 294.337 182.249 294.346 181.27C294.356 180.617 293.832 180.153 292.27 179.431C290.747 178.729 288.73 177.552 288.75 175.436C288.77 172.578 291.568 170.581 295.523 170.581C297.076 170.581 298.331 170.897 299.122 171.204L298.579 174.388L298.223 174.22C297.481 173.923 296.532 173.636 295.227 173.656C293.654 173.656 292.923 174.319 292.923 174.922Z" fill="white"/>
<path d="M287.099 170.838L284.577 185.542H280.582L283.084 170.838H287.099Z" fill="white"/>
<path d="M272.701 178.413C271.367 175.011 268.173 172.183 263.328 171.006L263.377 170.71H269.597C270.437 170.74 271.11 171.006 271.347 171.906L272.701 178.413Z" fill="white"/>
<path d="M281.462 170.848L275.144 185.532H270.902L267.312 173.271C269.893 174.922 272.088 177.542 272.86 179.362L273.285 180.874L277.21 170.838H281.462V170.848Z" fill="white"/>
<path d="M53.2451 52.9127H26.5275C24.8169 52.9127 23.4128 51.5086 23.4128 49.7979V30.0118C23.4128 28.3012 24.8169 26.8971 26.5275 26.8971H53.2451C54.9558 26.8971 56.3599 28.3012 56.3599 30.0118V49.7979C56.3698 51.5086 54.9657 52.9127 53.2451 52.9127Z" fill="#F6C859"/>
<path d="M36.0992 49.4419C35.9608 49.4419 35.8223 49.3628 35.763 49.2343C35.6641 49.0464 35.7432 48.819 35.9311 48.7201C36.4848 48.4334 37.2363 47.9093 37.6714 46.9897C38.2251 45.8229 38.0768 44.5572 37.8494 44.4485C37.7901 44.4188 37.5626 44.5375 37.4242 44.6067C37.0583 44.7945 36.5639 45.0417 35.9904 44.844C35.4268 44.6462 35.1499 44.1419 35.0115 43.9046C34.1512 42.3225 33.8843 38.1992 34.794 36.1622C35.1005 35.48 35.5059 35.0844 36.0201 34.9559C36.5442 34.8372 36.9693 35.0548 37.3055 35.2328C37.5824 35.3811 37.7307 35.4404 37.8197 35.391C38.1757 35.1734 38.1658 33.8682 37.6714 32.83C37.2363 31.9104 36.4848 31.3764 35.9311 31.0995C35.7432 31.0007 35.674 30.7732 35.763 30.5854C35.8619 30.3975 36.0893 30.3283 36.2772 30.4173C36.9298 30.7535 37.8296 31.3863 38.3537 32.5036C38.8777 33.6012 39.125 35.4899 38.2054 36.0436C37.7406 36.3204 37.3055 36.093 36.9496 35.915C36.6826 35.7667 36.4354 35.6481 36.1882 35.6975C35.852 35.7766 35.6246 36.1622 35.4861 36.4688C34.6852 38.2585 34.9126 42.1445 35.674 43.5388C35.8026 43.7761 35.9608 44.0332 36.2277 44.1222C36.4848 44.2111 36.7221 44.1024 37.0682 43.9244C37.4044 43.7563 37.7802 43.5585 38.1757 43.7563C39.0261 44.1716 38.9766 46.0108 38.3537 47.316C37.8296 48.4235 36.9298 49.0662 36.2772 49.4024C36.2179 49.4321 36.1585 49.4419 36.0992 49.4419Z" fill="#7D662D"/>
<path d="M34.9522 36.8544H28.0799C27.8723 36.8544 27.6943 36.6863 27.6943 36.4688C27.6943 36.2611 27.8624 36.0831 28.0799 36.0831H34.9522C35.1598 36.0831 35.3378 36.2512 35.3378 36.4688C35.3378 36.6863 35.1598 36.8544 34.9522 36.8544Z" fill="#7D662D"/>
<path d="M34.9522 43.7267H28.0799C27.8723 43.7267 27.6943 43.5586 27.6943 43.341C27.6943 43.1334 27.8624 42.9554 28.0799 42.9554H34.9522C35.1598 42.9554 35.3378 43.1235 35.3378 43.341C35.3378 43.5487 35.1598 43.7267 34.9522 43.7267Z" fill="#7D662D"/>
<path d="M44.1085 49.442C44.0492 49.442 43.9899 49.4321 43.9306 49.4024C43.2779 49.0662 42.3781 48.4334 41.8541 47.316C41.2311 46.0108 41.1817 44.1716 42.032 43.7563C42.4276 43.5684 42.8033 43.7563 43.1395 43.9244C43.4856 44.1024 43.7229 44.2112 43.98 44.1222C44.2667 44.0233 44.4348 43.7167 44.5337 43.5388C45.2951 42.1445 45.5225 38.2585 44.7216 36.4688C44.5832 36.1622 44.3459 35.7766 44.0195 35.6975C43.8119 35.6481 43.6834 35.4404 43.7328 35.2426C43.7822 35.035 43.9899 34.9065 44.1876 34.9559C44.7018 35.0746 45.1171 35.48 45.4138 36.1622C46.3235 38.2091 46.0664 42.3225 45.1962 43.9046C45.0677 44.1419 44.7908 44.6462 44.2272 44.844C43.6537 45.0417 43.1494 44.7945 42.7934 44.6067C42.655 44.5375 42.4177 44.4188 42.3682 44.4485C42.1408 44.5572 41.9925 45.8229 42.5462 46.9897C42.9813 47.9093 43.7328 48.4433 44.2865 48.7201C44.4744 48.819 44.5436 49.0464 44.4546 49.2343C44.3854 49.3727 44.247 49.442 44.1085 49.442Z" fill="#7D662D"/>
<path d="M42.5858 35.3317C42.4276 35.3317 42.2793 35.2328 42.2199 35.0746C41.3992 32.6223 43.3175 30.7337 43.9306 30.4173C44.1184 30.3184 44.3459 30.3975 44.4447 30.5854C44.5436 30.7732 44.4645 31.0007 44.2766 31.0995C43.9998 31.238 42.2397 32.7509 42.9418 34.8372C43.011 35.035 42.9022 35.2525 42.7044 35.3218C42.6649 35.3218 42.6253 35.3317 42.5858 35.3317Z" fill="#7D662D"/>
<path d="M52.1278 36.8544H45.2556C45.0479 36.8544 44.8699 36.6863 44.8699 36.4688C44.8699 36.2611 45.038 36.0831 45.2556 36.0831H52.1278C52.3354 36.0831 52.5134 36.2512 52.5134 36.4688C52.5035 36.6863 52.3354 36.8544 52.1278 36.8544Z" fill="#7D662D"/>
<path d="M52.1278 43.7267H45.2556C45.0479 43.7267 44.8699 43.5586 44.8699 43.341C44.8699 43.1334 45.038 42.9554 45.2556 42.9554H52.1278C52.3354 42.9554 52.5134 43.1235 52.5134 43.341C52.5035 43.5487 52.3354 43.7267 52.1278 43.7267Z" fill="#7D662D"/>
</g>
<defs>
<linearGradient id="paint0_linear_177_121" x1="36.4991" y1="236.503" x2="297.479" y2="-24.4775" gradientUnits="userSpaceOnUse">
<stop stop-color="#F7931E"/>
<stop offset="1" stop-color="#ED1E79"/>
</linearGradient>
<linearGradient id="paint1_linear_177_121" x1="36.5201" y1="236.191" x2="297.498" y2="-24.787" gradientUnits="userSpaceOnUse">
<stop stop-color="#ED1C24"/>
<stop offset="1" stop-color="#4F339A"/>
</linearGradient>
<linearGradient id="paint2_linear_177_121" x1="36.5672" y1="236.838" x2="297.796" y2="-22.7748" gradientUnits="userSpaceOnUse">
<stop stop-color="#ED1C24"/>
<stop offset="1" stop-color="#4F339A"/>
</linearGradient>
<linearGradient id="paint3_linear_177_121" x1="115.929" y1="73.5189" x2="256.367" y2="-47.8328" gradientUnits="userSpaceOnUse">
<stop stop-color="#ED1E79"/>
<stop offset="1" stop-color="#662D91"/>
</linearGradient>
<linearGradient id="paint4_linear_177_121" x1="155.569" y1="68.562" x2="296.006" y2="-52.7899" gradientUnits="userSpaceOnUse">
<stop stop-color="#ED1E79"/>
<stop offset="1" stop-color="#662D91"/>
</linearGradient>
<linearGradient id="paint5_linear_177_121" x1="138.225" y1="97.0522" x2="278.662" y2="-24.2994" gradientUnits="userSpaceOnUse">
<stop stop-color="#ED1E79"/>
<stop offset="1" stop-color="#662D91"/>
</linearGradient>
<linearGradient id="paint6_linear_177_121" x1="166.714" y1="119.346" x2="307.151" y2="-2.00524" gradientUnits="userSpaceOnUse">
<stop stop-color="#ED1E79"/>
<stop offset="1" stop-color="#662D91"/>
</linearGradient>
<linearGradient id="paint7_linear_177_121" x1="151.851" y1="93.3354" x2="292.289" y2="-28.0163" gradientUnits="userSpaceOnUse">
<stop stop-color="#ED1E79"/>
<stop offset="1" stop-color="#662D91"/>
</linearGradient>
<linearGradient id="paint8_linear_177_121" x1="163" y1="84.6641" x2="303.437" y2="-36.6878" gradientUnits="userSpaceOnUse">
<stop stop-color="#ED1E79"/>
<stop offset="1" stop-color="#662D91"/>
</linearGradient>
<linearGradient id="paint9_linear_177_121" x1="92.389" y1="135.453" x2="232.827" y2="14.1017" gradientUnits="userSpaceOnUse">
<stop stop-color="#ED1E79"/>
<stop offset="1" stop-color="#662D91"/>
</linearGradient>
<linearGradient id="paint10_linear_177_121" x1="179.101" y1="123.062" x2="319.538" y2="1.7099" gradientUnits="userSpaceOnUse">
<stop stop-color="#ED1E79"/>
<stop offset="1" stop-color="#662D91"/>
</linearGradient>
<linearGradient id="paint11_linear_177_121" x1="113.447" y1="147.839" x2="253.884" y2="26.4871" gradientUnits="userSpaceOnUse">
<stop stop-color="#ED1E79"/>
<stop offset="1" stop-color="#662D91"/>
</linearGradient>
<linearGradient id="paint12_linear_177_121" x1="141.935" y1="176.326" x2="282.373" y2="54.9744" gradientUnits="userSpaceOnUse">
<stop stop-color="#ED1E79"/>
<stop offset="1" stop-color="#662D91"/>
</linearGradient>
<linearGradient id="paint13_linear_177_121" x1="176.624" y1="115.63" x2="317.061" y2="-5.72194" gradientUnits="userSpaceOnUse">
<stop stop-color="#ED1E79"/>
<stop offset="1" stop-color="#662D91"/>
</linearGradient>
<linearGradient id="paint14_linear_177_121" x1="221.219" y1="97.0473" x2="361.657" y2="-24.3042" gradientUnits="userSpaceOnUse">
<stop stop-color="#ED1E79"/>
<stop offset="1" stop-color="#662D91"/>
</linearGradient>
<linearGradient id="paint15_linear_177_121" x1="166.713" y1="126.778" x2="307.151" y2="5.4268" gradientUnits="userSpaceOnUse">
<stop stop-color="#ED1E79"/>
<stop offset="1" stop-color="#662D91"/>
</linearGradient>
<linearGradient id="paint16_linear_177_121" x1="224.933" y1="130.491" x2="365.371" y2="9.13904" gradientUnits="userSpaceOnUse">
<stop stop-color="#ED1E79"/>
<stop offset="1" stop-color="#662D91"/>
</linearGradient>
<linearGradient id="paint17_linear_177_121" x1="146.894" y1="119.348" x2="287.332" y2="-2.004" gradientUnits="userSpaceOnUse">
<stop stop-color="#ED1E79"/>
<stop offset="1" stop-color="#662D91"/>
</linearGradient>
<linearGradient id="paint18_linear_177_121" x1="191.489" y1="110.674" x2="331.926" y2="-10.6774" gradientUnits="userSpaceOnUse">
<stop stop-color="#ED1E79"/>
<stop offset="1" stop-color="#662D91"/>
</linearGradient>
<linearGradient id="paint19_linear_177_121" x1="196.442" y1="140.402" x2="336.879" y2="19.0502" gradientUnits="userSpaceOnUse">
<stop stop-color="#ED1E79"/>
<stop offset="1" stop-color="#662D91"/>
</linearGradient>
<linearGradient id="paint20_linear_177_121" x1="224.931" y1="155.264" x2="365.369" y2="33.9126" gradientUnits="userSpaceOnUse">
<stop stop-color="#ED1E79"/>
<stop offset="1" stop-color="#662D91"/>
</linearGradient>
<linearGradient id="paint21_linear_177_121" x1="146.892" y1="152.791" x2="287.329" y2="31.4396" gradientUnits="userSpaceOnUse">
<stop stop-color="#ED1E79"/>
<stop offset="1" stop-color="#662D91"/>
</linearGradient>
<linearGradient id="paint22_linear_177_121" x1="124.596" y1="137.929" x2="265.033" y2="16.5769" gradientUnits="userSpaceOnUse">
<stop stop-color="#ED1E79"/>
<stop offset="1" stop-color="#662D91"/>
</linearGradient>
<linearGradient id="paint23_linear_177_121" x1="-124.393" y1="212.263" x2="16.0448" y2="90.9116" gradientUnits="userSpaceOnUse">
<stop stop-color="#ED1E79"/>
<stop offset="1" stop-color="#662D91"/>
</linearGradient>
<linearGradient id="paint24_linear_177_121" x1="-84.7536" y1="207.306" x2="55.6839" y2="85.9544" gradientUnits="userSpaceOnUse">
<stop stop-color="#ED1E79"/>
<stop offset="1" stop-color="#662D91"/>
</linearGradient>
<linearGradient id="paint25_linear_177_121" x1="-102.098" y1="235.796" x2="38.34" y2="114.445" gradientUnits="userSpaceOnUse">
<stop stop-color="#ED1E79"/>
<stop offset="1" stop-color="#662D91"/>
</linearGradient>
<linearGradient id="paint26_linear_177_121" x1="-73.6086" y1="258.091" x2="66.8295" y2="136.739" gradientUnits="userSpaceOnUse">
<stop stop-color="#ED1E79"/>
<stop offset="1" stop-color="#662D91"/>
</linearGradient>
<linearGradient id="paint27_linear_177_121" x1="-88.4715" y1="232.08" x2="51.9662" y2="110.728" gradientUnits="userSpaceOnUse">
<stop stop-color="#ED1E79"/>
<stop offset="1" stop-color="#662D91"/>
</linearGradient>
<linearGradient id="paint28_linear_177_121" x1="-77.3223" y1="223.408" x2="63.1153" y2="102.057" gradientUnits="userSpaceOnUse">
<stop stop-color="#ED1E79"/>
<stop offset="1" stop-color="#662D91"/>
</linearGradient>
<linearGradient id="paint29_linear_177_121" x1="-147.933" y1="274.198" x2="-7.49549" y2="152.846" gradientUnits="userSpaceOnUse">
<stop stop-color="#ED1E79"/>
<stop offset="1" stop-color="#662D91"/>
</linearGradient>
<linearGradient id="paint30_linear_177_121" x1="-61.2216" y1="261.806" x2="79.2161" y2="140.454" gradientUnits="userSpaceOnUse">
<stop stop-color="#ED1E79"/>
<stop offset="1" stop-color="#662D91"/>
</linearGradient>
<linearGradient id="paint31_linear_177_121" x1="-126.876" y1="286.583" x2="13.5622" y2="165.231" gradientUnits="userSpaceOnUse">
<stop stop-color="#ED1E79"/>
<stop offset="1" stop-color="#662D91"/>
</linearGradient>
<linearGradient id="paint32_linear_177_121" x1="-98.3869" y1="315.07" x2="42.0508" y2="193.719" gradientUnits="userSpaceOnUse">
<stop stop-color="#ED1E79"/>
<stop offset="1" stop-color="#662D91"/>
</linearGradient>
<linearGradient id="paint33_linear_177_121" x1="-63.6985" y1="254.374" x2="76.7395" y2="133.022" gradientUnits="userSpaceOnUse">
<stop stop-color="#ED1E79"/>
<stop offset="1" stop-color="#662D91"/>
</linearGradient>
<linearGradient id="paint34_linear_177_121" x1="-19.1031" y1="235.792" x2="121.335" y2="114.44" gradientUnits="userSpaceOnUse">
<stop stop-color="#ED1E79"/>
<stop offset="1" stop-color="#662D91"/>
</linearGradient>
<linearGradient id="paint35_linear_177_121" x1="-73.6091" y1="265.523" x2="66.8288" y2="144.171" gradientUnits="userSpaceOnUse">
<stop stop-color="#ED1E79"/>
<stop offset="1" stop-color="#662D91"/>
</linearGradient>
<linearGradient id="paint36_linear_177_121" x1="-15.389" y1="269.235" x2="125.048" y2="147.883" gradientUnits="userSpaceOnUse">
<stop stop-color="#ED1E79"/>
<stop offset="1" stop-color="#662D91"/>
</linearGradient>
<linearGradient id="paint37_linear_177_121" x1="-93.428" y1="258.092" x2="47.0096" y2="136.74" gradientUnits="userSpaceOnUse">
<stop stop-color="#ED1E79"/>
<stop offset="1" stop-color="#662D91"/>
</linearGradient>
<linearGradient id="paint38_linear_177_121" x1="-48.8334" y1="249.419" x2="91.6043" y2="128.067" gradientUnits="userSpaceOnUse">
<stop stop-color="#ED1E79"/>
<stop offset="1" stop-color="#662D91"/>
</linearGradient>
<linearGradient id="paint39_linear_177_121" x1="-43.8806" y1="279.146" x2="96.5574" y2="157.794" gradientUnits="userSpaceOnUse">
<stop stop-color="#ED1E79"/>
<stop offset="1" stop-color="#662D91"/>
</linearGradient>
<linearGradient id="paint40_linear_177_121" x1="-15.3908" y1="294.008" x2="125.047" y2="172.657" gradientUnits="userSpaceOnUse">
<stop stop-color="#ED1E79"/>
<stop offset="1" stop-color="#662D91"/>
</linearGradient>
<linearGradient id="paint41_linear_177_121" x1="-93.4304" y1="291.536" x2="47.0071" y2="170.184" gradientUnits="userSpaceOnUse">
<stop stop-color="#ED1E79"/>
<stop offset="1" stop-color="#662D91"/>
</linearGradient>
<linearGradient id="paint42_linear_177_121" x1="-115.726" y1="276.673" x2="24.7112" y2="155.321" gradientUnits="userSpaceOnUse">
<stop stop-color="#ED1E79"/>
<stop offset="1" stop-color="#662D91"/>
</linearGradient>
<clipPath id="clip0_177_121">
<rect width="291.007" height="158.872" fill="white" transform="translate(21.6527 26.8971)"/>
</clipPath>
</defs>
</svg>
