<svg width="228" height="45" viewBox="0 0 228 45" fill="none" xmlns="http://www.w3.org/2000/svg">
<path d="M68.6 11.36C69.2933 11.7067 69.6933 12.2534 69.8 13C69.9333 13.7467 69.7467 14.4267 69.24 15.04C68.8933 15.52 68.44 15.7867 67.88 15.84C67.3467 15.8934 66.8 15.7867 66.24 15.52C65.6 15.2267 64.92 15 64.2 14.84C63.5067 14.68 62.7733 14.6 62 14.6C60.56 14.6 59.2667 14.8267 58.12 15.28C57 15.7334 56.04 16.3867 55.24 17.24C54.44 18.0667 53.8267 19.0534 53.4 20.2C53 21.3467 52.8 22.6134 52.8 24C52.8 25.6267 53.0267 27.04 53.48 28.24C53.96 29.44 54.6133 30.44 55.44 31.24C56.2667 32.04 57.24 32.64 58.36 33.04C59.48 33.4134 60.6933 33.6 62 33.6C62.72 33.6 63.44 33.5334 64.16 33.4C64.88 33.2667 65.5733 33.0267 66.24 32.68C66.8 32.4134 67.3467 32.32 67.88 32.4C68.44 32.48 68.9067 32.76 69.28 33.24C69.8133 33.9067 70 34.6 69.84 35.32C69.7067 36.0134 69.3067 36.52 68.64 36.84C67.9467 37.1867 67.2267 37.48 66.48 37.72C65.76 37.9334 65.0267 38.0934 64.28 38.2C63.5333 38.3334 62.7733 38.4 62 38.4C60.08 38.4 58.2533 38.0934 56.52 37.48C54.8133 36.8667 53.28 35.96 51.92 34.76C50.5867 33.56 49.5333 32.0667 48.76 30.28C47.9867 28.4667 47.6 26.3734 47.6 24C47.6 21.9467 47.9467 20.0534 48.64 18.32C49.36 16.5867 50.36 15.0934 51.64 13.84C52.9467 12.56 54.48 11.5734 56.24 10.88C58 10.16 59.92 9.80003 62 9.80003C63.1733 9.80003 64.32 9.93336 65.44 10.2C66.56 10.4667 67.6133 10.8534 68.6 11.36ZM78.1981 35.56C78.1981 36.2534 77.9715 36.84 77.5181 37.32C77.0648 37.7734 76.4915 38 75.7981 38C75.1048 38 74.5315 37.7734 74.0781 37.32C73.6248 36.84 73.3981 36.2534 73.3981 35.56V19.04C73.3981 18.3467 73.6248 17.7734 74.0781 17.32C74.5315 16.84 75.1048 16.6 75.7981 16.6C76.4915 16.6 77.0648 16.84 77.5181 17.32C77.9715 17.7734 78.1981 18.3467 78.1981 19.04V35.56ZM75.7581 14C74.8515 14 74.2115 13.8534 73.8381 13.56C73.4648 13.2667 73.2781 12.7467 73.2781 12V11.24C73.2781 10.4667 73.4781 9.9467 73.8781 9.68003C74.3048 9.3867 74.9448 9.24003 75.7981 9.24003C76.7315 9.24003 77.3848 9.3867 77.7581 9.68003C78.1315 9.97336 78.3181 10.4934 78.3181 11.24V12C78.3181 12.7734 78.1181 13.3067 77.7181 13.6C77.3181 13.8667 76.6648 14 75.7581 14ZM94.5713 16.2C96.5446 16.2 98.0379 16.6134 99.0513 17.44C100.091 18.2667 100.798 19.3734 101.171 20.76C101.571 22.12 101.771 23.64 101.771 25.32V35.56C101.771 36.2534 101.545 36.84 101.091 37.32C100.638 37.7734 100.065 38 99.3713 38C98.6779 38 98.1046 37.7734 97.6513 37.32C97.1979 36.84 96.9713 36.2534 96.9713 35.56V25.32C96.9713 24.44 96.8513 23.6534 96.6113 22.96C96.3979 22.24 95.9979 21.6667 95.4113 21.24C94.8246 20.8134 93.9846 20.6 92.8913 20.6C91.8246 20.6 90.9179 20.8134 90.1713 21.24C89.4513 21.6667 88.8913 22.24 88.4913 22.96C88.1179 23.6534 87.9313 24.44 87.9313 25.32V35.56C87.9313 36.2534 87.7046 36.84 87.2513 37.32C86.7979 37.7734 86.2246 38 85.5312 38C84.8379 38 84.2646 37.7734 83.8113 37.32C83.3579 36.84 83.1313 36.2534 83.1313 35.56V19.04C83.1313 18.3467 83.3579 17.7734 83.8113 17.32C84.2646 16.84 84.8379 16.6 85.5312 16.6C86.2246 16.6 86.7979 16.84 87.2513 17.32C87.7046 17.7734 87.9313 18.3467 87.9313 19.04V20.76L87.3313 20.64C87.5713 20.1867 87.9179 19.7067 88.3713 19.2C88.8246 18.6667 89.3579 18.1734 89.9713 17.72C90.5846 17.2667 91.2779 16.9067 92.0513 16.64C92.8246 16.3467 93.6646 16.2 94.5713 16.2ZM117.039 38.4C114.773 38.4 112.799 37.9334 111.119 37C109.466 36.04 108.186 34.7467 107.279 33.12C106.399 31.4934 105.959 29.6534 105.959 27.6C105.959 25.2 106.439 23.16 107.399 21.48C108.386 19.7734 109.666 18.4667 111.239 17.56C112.813 16.6534 114.479 16.2 116.239 16.2C117.599 16.2 118.879 16.48 120.079 17.04C121.306 17.6 122.386 18.3734 123.319 19.36C124.253 20.32 124.986 21.44 125.519 22.72C126.079 24 126.359 25.36 126.359 26.8C126.333 27.44 126.079 27.96 125.599 28.36C125.119 28.76 124.559 28.96 123.919 28.96H108.639L107.439 24.96H122.119L121.239 25.76V24.68C121.186 23.9067 120.906 23.2134 120.399 22.6C119.919 21.9867 119.306 21.5067 118.559 21.16C117.839 20.7867 117.066 20.6 116.239 20.6C115.439 20.6 114.693 20.7067 113.999 20.92C113.306 21.1334 112.706 21.4934 112.199 22C111.693 22.5067 111.293 23.1867 110.999 24.04C110.706 24.8934 110.559 25.9734 110.559 27.28C110.559 28.72 110.853 29.9467 111.439 30.96C112.053 31.9467 112.826 32.7067 113.759 33.24C114.719 33.7467 115.733 34 116.799 34C117.786 34 118.573 33.92 119.159 33.76C119.746 33.6 120.213 33.4134 120.559 33.2C120.933 32.96 121.266 32.76 121.559 32.6C122.039 32.36 122.493 32.24 122.919 32.24C123.506 32.24 123.986 32.44 124.359 32.84C124.759 33.24 124.959 33.7067 124.959 34.24C124.959 34.96 124.586 35.6134 123.839 36.2C123.146 36.7867 122.173 37.3067 120.919 37.76C119.666 38.1867 118.373 38.4 117.039 38.4ZM149.873 10C150.46 10 151.033 10.2134 151.593 10.64C152.18 11.0667 152.473 11.64 152.473 12.36C152.473 12.8667 152.286 13.3734 151.913 13.88L136.593 33.56L136.113 33.4H149.473C150.166 33.4 150.74 33.6134 151.193 34.04C151.673 34.44 151.913 34.9867 151.913 35.68C151.913 36.3467 151.673 36.9067 151.193 37.36C150.74 37.7867 150.166 38 149.473 38H131.913C131.22 38 130.62 37.76 130.113 37.28C129.606 36.7734 129.353 36.2267 129.353 35.64C129.353 35.1334 129.54 34.6267 129.913 34.12L145.273 14.36L145.633 14.6H133.513C132.82 14.6 132.233 14.3867 131.753 13.96C131.3 13.5334 131.073 12.9734 131.073 12.28C131.073 11.5867 131.3 11.04 131.753 10.64C132.233 10.2134 132.82 10 133.513 10H149.873ZM177.055 27.32C177.055 29.5067 176.562 31.44 175.575 33.12C174.615 34.7734 173.309 36.0667 171.655 37C170.029 37.9334 168.202 38.4 166.175 38.4C164.149 38.4 162.309 37.9334 160.655 37C159.029 36.0667 157.722 34.7734 156.735 33.12C155.775 31.44 155.295 29.5067 155.295 27.32C155.295 25.1334 155.775 23.2134 156.735 21.56C157.722 19.88 159.029 18.5734 160.655 17.64C162.309 16.68 164.149 16.2 166.175 16.2C168.202 16.2 170.029 16.68 171.655 17.64C173.309 18.5734 174.615 19.88 175.575 21.56C176.562 23.2134 177.055 25.1334 177.055 27.32ZM172.255 27.32C172.255 25.96 171.975 24.7867 171.415 23.8C170.882 22.7867 170.149 22 169.215 21.44C168.309 20.88 167.295 20.6 166.175 20.6C165.055 20.6 164.029 20.88 163.095 21.44C162.189 22 161.455 22.7867 160.895 23.8C160.362 24.7867 160.095 25.96 160.095 27.32C160.095 28.6534 160.362 29.8267 160.895 30.84C161.455 31.8267 162.189 32.6 163.095 33.16C164.029 33.72 165.055 34 166.175 34C167.295 34 168.309 33.72 169.215 33.16C170.149 32.6 170.882 31.8267 171.415 30.84C171.975 29.8267 172.255 28.6534 172.255 27.32ZM192.696 16.2C194.67 16.2 196.163 16.6134 197.176 17.44C198.216 18.2667 198.923 19.3734 199.296 20.76C199.696 22.12 199.896 23.64 199.896 25.32V35.56C199.896 36.2534 199.67 36.84 199.216 37.32C198.763 37.7734 198.19 38 197.496 38C196.803 38 196.23 37.7734 195.776 37.32C195.323 36.84 195.096 36.2534 195.096 35.56V25.32C195.096 24.44 194.976 23.6534 194.736 22.96C194.523 22.24 194.123 21.6667 193.536 21.24C192.95 20.8134 192.11 20.6 191.016 20.6C189.95 20.6 189.043 20.8134 188.296 21.24C187.576 21.6667 187.016 22.24 186.616 22.96C186.243 23.6534 186.056 24.44 186.056 25.32V35.56C186.056 36.2534 185.83 36.84 185.376 37.32C184.923 37.7734 184.35 38 183.656 38C182.963 38 182.39 37.7734 181.936 37.32C181.483 36.84 181.256 36.2534 181.256 35.56V19.04C181.256 18.3467 181.483 17.7734 181.936 17.32C182.39 16.84 182.963 16.6 183.656 16.6C184.35 16.6 184.923 16.84 185.376 17.32C185.83 17.7734 186.056 18.3467 186.056 19.04V20.76L185.456 20.64C185.696 20.1867 186.043 19.7067 186.496 19.2C186.95 18.6667 187.483 18.1734 188.096 17.72C188.71 17.2667 189.403 16.9067 190.176 16.64C190.95 16.3467 191.79 16.2 192.696 16.2ZM215.164 38.4C212.898 38.4 210.924 37.9334 209.244 37C207.591 36.04 206.311 34.7467 205.404 33.12C204.524 31.4934 204.084 29.6534 204.084 27.6C204.084 25.2 204.564 23.16 205.524 21.48C206.511 19.7734 207.791 18.4667 209.364 17.56C210.938 16.6534 212.604 16.2 214.364 16.2C215.724 16.2 217.004 16.48 218.204 17.04C219.431 17.6 220.511 18.3734 221.444 19.36C222.378 20.32 223.111 21.44 223.644 22.72C224.204 24 224.484 25.36 224.484 26.8C224.458 27.44 224.204 27.96 223.724 28.36C223.244 28.76 222.684 28.96 222.044 28.96H206.764L205.564 24.96H220.244L219.364 25.76V24.68C219.311 23.9067 219.031 23.2134 218.524 22.6C218.044 21.9867 217.431 21.5067 216.684 21.16C215.964 20.7867 215.191 20.6 214.364 20.6C213.564 20.6 212.818 20.7067 212.124 20.92C211.431 21.1334 210.831 21.4934 210.324 22C209.818 22.5067 209.418 23.1867 209.124 24.04C208.831 24.8934 208.684 25.9734 208.684 27.28C208.684 28.72 208.978 29.9467 209.564 30.96C210.178 31.9467 210.951 32.7067 211.884 33.24C212.844 33.7467 213.858 34 214.924 34C215.911 34 216.698 33.92 217.284 33.76C217.871 33.6 218.338 33.4134 218.684 33.2C219.058 32.96 219.391 32.76 219.684 32.6C220.164 32.36 220.618 32.24 221.044 32.24C221.631 32.24 222.111 32.44 222.484 32.84C222.884 33.24 223.084 33.7067 223.084 34.24C223.084 34.96 222.711 35.6134 221.964 36.2C221.271 36.7867 220.298 37.3067 219.044 37.76C217.791 38.1867 216.498 38.4 215.164 38.4Z" fill="white"/>
<path fill-rule="evenodd" clip-rule="evenodd" d="M27.1497 13.8518L38.5008 12.6008C39.2839 12.5171 39.9912 13.0797 40.0713 13.8654C40.1068 14.1788 40.0365 14.492 39.8762 14.7595L33.9735 24.5485L38.6817 34.9796C39.0063 35.6971 38.6875 36.5404 37.9717 36.8648C37.6879 36.9939 37.3654 37.027 37.0613 36.954L25.9385 34.3435L17.4963 42.0415C17.3001 42.2209 17.0577 42.3417 16.7964 42.3901C16.5351 42.4385 16.2654 42.4125 16.0179 42.3152C15.7705 42.2178 15.5551 42.053 15.3963 41.8393C15.2374 41.6257 15.1415 41.3718 15.1193 41.1064L14.15 29.7032L4.22662 24.0294C3.89803 23.8416 3.65717 23.5308 3.55698 23.1654C3.45679 22.8 3.50546 22.4098 3.69229 22.0806C3.84723 21.8099 4.08588 21.5958 4.37618 21.4742L14.8989 17.0374L17.2052 5.83315C17.3682 5.06261 18.1222 4.56697 18.8904 4.7267C19.1966 4.78996 19.4735 4.95299 19.6778 5.19022L27.1497 13.8518ZM17.7164 21.5055C17.4158 21.8007 17.246 22.2021 17.2443 22.6213L17.2247 27.3637C17.223 27.783 17.3894 28.1858 17.6875 28.4835C17.9856 28.7812 18.3909 28.9494 18.8142 28.9511L24.7992 28.9759C25.1863 28.9775 25.5608 28.8397 25.8529 28.5882C26.1451 28.3367 26.335 27.9886 26.3873 27.6087L28.8654 28.7113C28.9866 28.7652 29.1195 28.7883 29.252 28.7785C29.3845 28.7686 29.5124 28.7262 29.6242 28.655C29.7359 28.5838 29.828 28.486 29.8919 28.3706C29.9558 28.2553 29.9897 28.1259 29.9903 27.9943L30.0147 22.0963C30.0152 21.9646 29.9824 21.8348 29.9194 21.7188C29.8564 21.6028 29.7651 21.5042 29.6538 21.4321C29.5426 21.3599 29.4148 21.3164 29.2823 21.3056C29.1498 21.2948 29.0166 21.3169 28.8949 21.37L26.4086 22.4521C26.3595 22.0718 26.1724 21.7221 25.8824 21.4682C25.5923 21.2142 25.2189 21.0734 24.8318 21.0718L18.8468 21.0471C18.4235 21.0454 18.0169 21.2102 17.7164 21.5055Z" fill="white"/>
</svg>
