<svg width="23" height="26" viewBox="0 0 23 26" fill="none" xmlns="http://www.w3.org/2000/svg">
<path d="M23 14C23 15.625 22.6955 17.1771 22.0866 18.6562C21.4776 20.1354 20.6591 21.4115 19.6309 22.4844C18.6026 23.5573 17.3798 24.4115 15.9622 25.0469C14.5447 25.6823 13.0573 26 11.5 26C9.94271 26 8.45529 25.6823 7.03776 25.0469C5.62023 24.4115 4.39735 23.5573 3.36914 22.4844C2.34093 21.4115 1.52235 20.1354 0.913411 18.6562C0.30447 17.1771 0 15.625 0 14C0 12.1042 0.401801 10.3177 1.2054 8.64062C2.00901 6.96354 3.13954 5.55729 4.59701 4.42188C5.02626 4.08854 5.50293 3.95833 6.02702 4.03125C6.55111 4.10417 6.96788 4.36458 7.27734 4.8125C7.59679 5.25 7.71908 5.74219 7.64421 6.28906C7.56934 6.83594 7.32227 7.27604 6.90299 7.60938C5.9247 8.38021 5.16851 9.32292 4.63444 10.4375C4.10037 11.5521 3.83333 12.7396 3.83333 14C3.83333 15.0833 4.03548 16.1172 4.43978 17.1016C4.84408 18.0859 5.39062 18.9375 6.07943 19.6562C6.76823 20.375 7.58431 20.9453 8.52767 21.3672C9.47103 21.7891 10.4618 22 11.5 22C12.5382 22 13.529 21.7891 14.4723 21.3672C15.4157 20.9453 16.2318 20.375 16.9206 19.6562C17.6094 18.9375 18.1559 18.0859 18.5602 17.1016C18.9645 16.1172 19.1667 15.0833 19.1667 14C19.1667 12.7396 18.8996 11.5521 18.3656 10.4375C17.8315 9.32292 17.0753 8.38021 16.097 7.60938C15.6777 7.27604 15.4307 6.83594 15.3558 6.28906C15.2809 5.74219 15.4032 5.25 15.7227 4.8125C16.0321 4.36458 16.4514 4.10417 16.9805 4.03125C17.5095 3.95833 17.9837 4.08854 18.403 4.42188C19.8605 5.55729 20.991 6.96354 21.7946 8.64062C22.5982 10.3177 23 12.1042 23 14ZM13.4167 2V12C13.4167 12.5417 13.227 13.0104 12.8477 13.4062C12.4683 13.8021 12.0191 14 11.5 14C10.9809 14 10.5317 13.8021 10.1523 13.4062C9.773 13.0104 9.58333 12.5417 9.58333 12V2C9.58333 1.45833 9.773 0.989583 10.1523 0.59375C10.5317 0.197917 10.9809 0 11.5 0C12.0191 0 12.4683 0.197917 12.8477 0.59375C13.227 0.989583 13.4167 1.45833 13.4167 2Z" fill="#D74343"/>
</svg>
