<svg width="19" height="23" viewBox="0 0 19 23" fill="none" xmlns="http://www.w3.org/2000/svg">
<path d="M1.25611 3.4612C0.496111 3.79862 0 4.55782 0 5.39083V10.3467C0 16.1989 4.05333 21.6714 9.5 23C14.9467 21.6714 19 16.1989 19 10.3467V5.39083C19 4.55782 18.5039 3.79862 17.7439 3.4612L10.355 0.181891C9.80611 -0.0606304 9.18333 -0.0606304 8.645 0.181891L1.25611 3.4612V3.4612ZM9.5 6.12894C10.0806 6.12894 10.5556 6.60344 10.5556 7.18338C10.5556 7.76332 10.0806 8.23782 9.5 8.23782C8.91944 8.23782 8.44444 7.76332 8.44444 7.18338C8.44444 6.60344 8.91944 6.12894 9.5 6.12894ZM9.5 10.3467C10.0806 10.3467 10.5556 10.8212 10.5556 11.4011V15.6189C10.5556 16.1989 10.0806 16.6734 9.5 16.6734C8.91944 16.6734 8.44444 16.1989 8.44444 15.6189V11.4011C8.44444 10.8212 8.91944 10.3467 9.5 10.3467Z" fill="white"/>
</svg>
