<svg width="17" height="23" viewBox="0 0 17 23" fill="none" xmlns="http://www.w3.org/2000/svg">
<path fill-rule="evenodd" clip-rule="evenodd" d="M3.63155 0H11.5L16.9473 5.44737V19.3684C16.9473 19.6895 16.8198 19.9974 16.5928 20.2244C16.3658 20.4514 16.0579 20.5789 15.7368 20.5789H3.63155C3.3105 20.5789 3.00259 20.4514 2.77558 20.2244C2.54856 19.9974 2.42102 19.6895 2.42102 19.3684V1.21053C2.42102 0.889475 2.54856 0.581573 2.77558 0.354555C3.00259 0.127537 3.3105 0 3.63155 0ZM15.1315 5.44737L11.5 1.81579V4.84211C11.5 5.00263 11.5637 5.15658 11.6772 5.27009C11.7908 5.3836 11.9447 5.44737 12.1052 5.44737H15.1315ZM13.7437 9.86155C13.8571 9.97506 13.9209 10.129 13.9209 10.2895C13.9209 10.45 13.8571 10.6039 13.7437 10.7174L8.47365 15.9874L5.62468 13.1384C5.51442 13.0243 5.45342 12.8714 5.4548 12.7127C5.45618 12.554 5.51983 12.4022 5.63205 12.29C5.74427 12.1778 5.89608 12.1141 6.05478 12.1127C6.21348 12.1113 6.36637 12.1724 6.48052 12.2826L8.47365 14.2757L12.8878 9.86155C13.0013 9.74808 13.1553 9.68434 13.3158 9.68434C13.4763 9.68434 13.6302 9.74808 13.7437 9.86155V9.86155Z" fill="white"/>
<path d="M1.21053 3.63159H0V19.9737C0 20.7763 0.318843 21.5461 0.886387 22.1136C1.45393 22.6812 2.22369 23 3.02632 23H14.5263V21.7895H3.02632C2.54474 21.7895 2.08289 21.5982 1.74236 21.2577C1.40183 20.9171 1.21053 20.4553 1.21053 19.9737V3.63159Z" fill="white"/>
</svg>
