<svg width="22" height="23" viewBox="0 0 22 23" fill="none" xmlns="http://www.w3.org/2000/svg">
<path d="M21.6124 8.14454L19.6383 6.13342C19.479 5.97335 19.2666 5.87988 19.043 5.87145C18.8194 5.86301 18.6009 5.94022 18.4304 6.08785C18.1672 6.31605 17.8295 6.4352 17.4842 6.4217C17.1388 6.40819 16.8111 6.26301 16.5659 6.01493C16.3225 5.76514 16.18 5.43134 16.1668 5.07964C16.1535 4.72794 16.2704 4.384 16.4943 4.11593C16.6392 3.94227 16.715 3.71961 16.7067 3.49184C16.6984 3.26407 16.6067 3.04773 16.4495 2.88547L14.4736 0.872075C14.3066 0.70229 14.0803 0.606934 13.8444 0.606934C13.6085 0.606934 13.3822 0.70229 13.2152 0.872075L10.0681 4.07765C9.87378 4.27629 9.72725 4.51806 9.63997 4.78402C9.62297 4.83515 9.59464 4.88161 9.55717 4.91978C9.51969 4.95796 9.47409 4.98682 9.4239 5.00414C9.16272 5.09305 8.92536 5.2425 8.7305 5.44072L0.660294 13.662C0.493629 13.8321 0.400024 14.0626 0.400024 14.303C0.400024 14.5433 0.493629 14.7738 0.660294 14.944L2.63669 16.9551C2.79597 17.1151 3.00833 17.2086 3.23192 17.217C3.4555 17.2255 3.67407 17.1483 3.84454 17.0006C4.10708 16.7706 4.44526 16.6501 4.79132 16.6634C5.13737 16.6766 5.46573 16.8226 5.7106 17.072C5.95547 17.3215 6.09876 17.656 6.11176 18.0085C6.12475 18.3611 6.00649 18.7056 5.78067 18.973C5.63576 19.1467 5.55997 19.3693 5.56825 19.5971C5.57653 19.8249 5.66828 20.0412 5.82541 20.2035L7.79957 22.2146C7.96655 22.3844 8.19284 22.4797 8.42877 22.4797C8.66469 22.4797 8.89098 22.3844 9.05796 22.2146L17.1282 13.9933C17.3226 13.7949 17.4693 13.5533 17.5567 13.2874C17.5737 13.2361 17.602 13.1895 17.6396 13.1512C17.6771 13.1129 17.7229 13.0841 17.7733 13.0668C18.0342 12.9779 18.2714 12.8286 18.4662 12.6307L21.6129 9.42467C21.7789 9.25457 21.8721 9.02441 21.872 8.78451C21.8719 8.54461 21.7786 8.31451 21.6124 8.14454ZM11.3963 6.79331C11.3298 6.86104 11.2509 6.91476 11.164 6.95142C11.0772 6.98807 10.9841 7.00694 10.8901 7.00694C10.7961 7.00694 10.703 6.98807 10.6161 6.95142C10.5293 6.91476 10.4504 6.86104 10.3839 6.79331L9.86901 6.26877C9.73805 6.13134 9.66543 5.94693 9.66684 5.75539C9.66826 5.56386 9.7436 5.38059 9.87658 5.24518C10.0096 5.10977 10.1895 5.0331 10.3775 5.03174C10.5655 5.03038 10.7465 5.10445 10.8814 5.23792L11.3963 5.76201C11.4627 5.82972 11.5155 5.91011 11.5515 5.99858C11.5874 6.08706 11.606 6.18189 11.606 6.27766C11.606 6.37343 11.5874 6.46826 11.5515 6.55674C11.5155 6.64521 11.4627 6.7256 11.3963 6.79331ZM13.3646 8.7985C13.2304 8.93514 13.0484 9.0119 12.8587 9.0119C12.6689 9.0119 12.4869 8.93514 12.3527 8.7985L11.8606 8.29721C11.7941 8.22949 11.7414 8.1491 11.7054 8.06062C11.6695 7.97215 11.651 7.87732 11.651 7.78155C11.651 7.68579 11.6695 7.59096 11.7054 7.50248C11.7414 7.41401 11.7941 7.33362 11.8606 7.2659C11.9949 7.12914 12.1769 7.05231 12.3668 7.05231C12.4608 7.05231 12.5539 7.07117 12.6407 7.10782C12.7276 7.14447 12.8065 7.19818 12.873 7.2659L13.3651 7.7672C13.4318 7.8349 13.4847 7.91535 13.5209 8.00394C13.557 8.09253 13.5756 8.18751 13.5757 8.28344C13.5757 8.37937 13.5572 8.47437 13.5211 8.56299C13.485 8.65161 13.4322 8.7321 13.3655 8.79987L13.3646 8.7985ZM15.333 10.8037C15.2665 10.8714 15.1876 10.9251 15.1007 10.9618C15.0139 10.9985 14.9208 11.0173 14.8268 11.0173C14.7328 11.0173 14.6397 10.9985 14.5528 10.9618C14.466 10.9251 14.3871 10.8714 14.3206 10.8037L13.8285 10.3024C13.6976 10.165 13.6249 9.98055 13.6263 9.78902C13.6278 9.59748 13.7031 9.41421 13.8361 9.2788C13.9691 9.14339 14.149 9.06672 14.337 9.06537C14.525 9.06401 14.706 9.13807 14.8409 9.27155L15.333 9.77284C15.3999 9.84044 15.453 9.92082 15.4893 10.0094C15.5257 10.0979 15.5445 10.1929 15.5447 10.2889C15.5449 10.3849 15.5265 10.48 15.4905 10.5687C15.4546 10.6575 15.4018 10.7381 15.3352 10.806L15.333 10.8037ZM17.3205 12.8335C17.2541 12.9012 17.1752 12.9549 17.0883 12.9916C17.0015 13.0283 16.9084 13.0471 16.8144 13.0471C16.7203 13.0471 16.6273 13.0283 16.5404 12.9916C16.4536 12.9549 16.3746 12.9012 16.3082 12.8335L15.7964 12.3094C15.7285 12.2419 15.6745 12.1613 15.6375 12.0723C15.6004 11.9834 15.5811 11.8878 15.5807 11.7912C15.5802 11.6945 15.5986 11.5988 15.6348 11.5094C15.671 11.4201 15.7243 11.339 15.7915 11.2708C15.8588 11.2027 15.9387 11.1488 16.0265 11.1123C16.1144 11.0759 16.2085 11.0576 16.3033 11.0585C16.3982 11.0595 16.4919 11.0796 16.5791 11.1178C16.6662 11.1559 16.7451 11.2114 16.811 11.2808L17.3232 11.8045C17.3897 11.8722 17.4424 11.9526 17.4783 12.0411C17.5143 12.1296 17.5327 12.2244 17.5327 12.3202C17.5327 12.416 17.5141 12.5108 17.4781 12.5993C17.4421 12.6877 17.3893 12.7681 17.3228 12.8358L17.3205 12.8335Z" fill="white"/>
</svg>
