<svg width="25" height="25" viewBox="0 0 25 25" fill="none" xmlns="http://www.w3.org/2000/svg">
<path d="M14.6375 1.90942C14.4775 1.77866 14.2932 1.68093 14.0951 1.62189C13.8971 1.56286 13.6894 1.54368 13.4839 1.56548C13.2784 1.58728 13.0793 1.64961 12.8981 1.74888C12.7169 1.84815 12.5571 1.98238 12.4281 2.14379L7.90313 7.81254H9.90312L13.6484 3.11879L14.8516 4.1016L11.8359 7.81254H13.8484L16.0625 5.08754L18.7469 7.27973L18.2812 7.81254H18.75C19.216 7.81205 19.6794 7.88104 20.125 8.01723C20.2952 7.6979 20.3493 7.32939 20.2781 6.97461C20.2068 6.61983 20.0147 6.30078 19.7344 6.07192L14.6375 1.90942ZM4.6875 8.59379C4.6875 8.38659 4.76981 8.18788 4.91632 8.04136C5.06284 7.89485 5.26155 7.81254 5.46875 7.81254H6.34063L7.58281 6.25004H5.46875C4.84715 6.25004 4.25101 6.49697 3.81147 6.93651C3.37193 7.37605 3.125 7.97219 3.125 8.59379V17.9688C3.125 19.0048 3.53655 19.9984 4.26911 20.7309C5.00168 21.4635 5.99525 21.875 7.03125 21.875H18.75C19.5788 21.875 20.3737 21.5458 20.9597 20.9597C21.5458 20.3737 21.875 19.5788 21.875 18.75V12.5C21.875 11.6712 21.5458 10.8764 20.9597 10.2903C20.3737 9.70428 19.5788 9.37504 18.75 9.37504H5.46875C5.26155 9.37504 5.06284 9.29273 4.91632 9.14622C4.76981 8.99971 4.6875 8.80099 4.6875 8.59379ZM16.4062 15.625H17.9688C18.176 15.625 18.3747 15.7074 18.5212 15.8539C18.6677 16.0004 18.75 16.1991 18.75 16.4063C18.75 16.6135 18.6677 16.8122 18.5212 16.9587C18.3747 17.1052 18.176 17.1875 17.9688 17.1875H16.4062C16.199 17.1875 16.0003 17.1052 15.8538 16.9587C15.7073 16.8122 15.625 16.6135 15.625 16.4063C15.625 16.1991 15.7073 16.0004 15.8538 15.8539C16.0003 15.7074 16.199 15.625 16.4062 15.625Z" fill="white"/>
</svg>
