<svg width="336" height="59" viewBox="0 0 336 59" fill="none" xmlns="http://www.w3.org/2000/svg">
<path d="M92.9 11.033C93.94 11.553 94.54 12.373 94.7 13.493C94.9 14.613 94.62 15.633 93.86 16.553C93.34 17.273 92.66 17.673 91.82 17.753C91.02 17.833 90.2 17.673 89.36 17.273C88.4 16.833 87.38 16.493 86.3 16.253C85.26 16.013 84.16 15.893 83 15.893C80.84 15.893 78.9 16.233 77.18 16.913C75.5 17.593 74.06 18.573 72.86 19.853C71.66 21.093 70.74 22.573 70.1 24.293C69.5 26.013 69.2 27.913 69.2 29.993C69.2 32.433 69.54 34.553 70.22 36.353C70.94 38.153 71.92 39.653 73.16 40.853C74.4 42.053 75.86 42.953 77.54 43.553C79.22 44.113 81.04 44.393 83 44.393C84.08 44.393 85.16 44.293 86.24 44.093C87.32 43.893 88.36 43.533 89.36 43.013C90.2 42.613 91.02 42.473 91.82 42.593C92.66 42.713 93.36 43.133 93.92 43.853C94.72 44.853 95 45.893 94.76 46.973C94.56 48.013 93.96 48.773 92.96 49.253C91.92 49.773 90.84 50.213 89.72 50.573C88.64 50.893 87.54 51.133 86.42 51.293C85.3 51.493 84.16 51.593 83 51.593C80.12 51.593 77.38 51.133 74.78 50.213C72.22 49.293 69.92 47.933 67.88 46.133C65.88 44.333 64.3 42.093 63.14 39.413C61.98 36.693 61.4 33.553 61.4 29.993C61.4 26.913 61.92 24.073 62.96 21.473C64.04 18.873 65.54 16.633 67.46 14.753C69.42 12.833 71.72 11.353 74.36 10.313C77 9.23298 79.88 8.69298 83 8.69298C84.76 8.69298 86.48 8.89298 88.16 9.29298C89.84 9.69298 91.42 10.273 92.9 11.033ZM107.297 47.333C107.297 48.373 106.957 49.253 106.277 49.973C105.597 50.653 104.737 50.993 103.697 50.993C102.657 50.993 101.797 50.653 101.117 49.973C100.437 49.253 100.097 48.373 100.097 47.333V22.553C100.097 21.513 100.437 20.653 101.117 19.973C101.797 19.253 102.657 18.893 103.697 18.893C104.737 18.893 105.597 19.253 106.277 19.973C106.957 20.653 107.297 21.513 107.297 22.553V47.333ZM103.637 14.993C102.277 14.993 101.317 14.773 100.757 14.333C100.197 13.893 99.9172 13.113 99.9172 11.993V10.853C99.9172 9.69298 100.217 8.91298 100.817 8.51298C101.457 8.07298 102.417 7.85298 103.697 7.85298C105.097 7.85298 106.077 8.07298 106.637 8.51298C107.197 8.95298 107.477 9.73298 107.477 10.853V11.993C107.477 13.153 107.177 13.953 106.577 14.393C105.977 14.793 104.997 14.993 103.637 14.993ZM131.857 18.293C134.817 18.293 137.057 18.913 138.577 20.153C140.137 21.393 141.197 23.053 141.757 25.133C142.357 27.173 142.657 29.453 142.657 31.973V47.333C142.657 48.373 142.317 49.253 141.637 49.973C140.957 50.653 140.097 50.993 139.057 50.993C138.017 50.993 137.157 50.653 136.477 49.973C135.797 49.253 135.457 48.373 135.457 47.333V31.973C135.457 30.653 135.277 29.473 134.917 28.433C134.597 27.353 133.997 26.493 133.117 25.853C132.237 25.213 130.977 24.893 129.337 24.893C127.737 24.893 126.377 25.213 125.257 25.853C124.177 26.493 123.337 27.353 122.737 28.433C122.177 29.473 121.897 30.653 121.897 31.973V47.333C121.897 48.373 121.557 49.253 120.877 49.973C120.197 50.653 119.337 50.993 118.297 50.993C117.257 50.993 116.397 50.653 115.717 49.973C115.037 49.253 114.697 48.373 114.697 47.333V22.553C114.697 21.513 115.037 20.653 115.717 19.973C116.397 19.253 117.257 18.893 118.297 18.893C119.337 18.893 120.197 19.253 120.877 19.973C121.557 20.653 121.897 21.513 121.897 22.553V25.133L120.997 24.953C121.357 24.273 121.877 23.553 122.557 22.793C123.237 21.993 124.037 21.253 124.957 20.573C125.877 19.893 126.917 19.353 128.077 18.953C129.237 18.513 130.497 18.293 131.857 18.293ZM165.559 51.593C162.159 51.593 159.199 50.893 156.679 49.493C154.199 48.053 152.279 46.113 150.919 43.673C149.599 41.233 148.939 38.473 148.939 35.393C148.939 31.793 149.659 28.733 151.099 26.213C152.579 23.653 154.499 21.693 156.859 20.333C159.219 18.973 161.719 18.293 164.359 18.293C166.399 18.293 168.319 18.713 170.119 19.553C171.959 20.393 173.579 21.553 174.979 23.033C176.379 24.473 177.479 26.153 178.279 28.073C179.119 29.993 179.539 32.033 179.539 34.193C179.499 35.153 179.119 35.933 178.399 36.533C177.679 37.133 176.839 37.433 175.879 37.433H152.959L151.159 31.433H173.179L171.859 32.633V31.013C171.779 29.853 171.359 28.813 170.599 27.893C169.879 26.973 168.959 26.253 167.839 25.733C166.759 25.173 165.599 24.893 164.359 24.893C163.159 24.893 162.039 25.053 160.999 25.373C159.959 25.693 159.059 26.233 158.299 26.993C157.539 27.753 156.939 28.773 156.499 30.053C156.059 31.333 155.839 32.953 155.839 34.913C155.839 37.073 156.279 38.913 157.159 40.433C158.079 41.913 159.239 43.053 160.639 43.853C162.079 44.613 163.599 44.993 165.199 44.993C166.679 44.993 167.859 44.873 168.739 44.633C169.619 44.393 170.319 44.113 170.839 43.793C171.399 43.433 171.899 43.133 172.339 42.893C173.059 42.533 173.739 42.353 174.379 42.353C175.259 42.353 175.979 42.653 176.539 43.253C177.139 43.853 177.439 44.553 177.439 45.353C177.439 46.433 176.879 47.413 175.759 48.293C174.719 49.173 173.259 49.953 171.379 50.633C169.499 51.273 167.559 51.593 165.559 51.593ZM214.81 8.99298C215.69 8.99298 216.55 9.31298 217.39 9.95298C218.27 10.593 218.71 11.453 218.71 12.533C218.71 13.293 218.43 14.053 217.87 14.813L194.89 44.333L194.17 44.093H214.21C215.25 44.093 216.11 44.413 216.79 45.053C217.51 45.653 217.87 46.473 217.87 47.513C217.87 48.513 217.51 49.353 216.79 50.033C216.11 50.673 215.25 50.993 214.21 50.993H187.87C186.83 50.993 185.93 50.633 185.17 49.913C184.41 49.153 184.03 48.333 184.03 47.453C184.03 46.693 184.31 45.933 184.87 45.173L207.91 15.533L208.45 15.893H190.27C189.23 15.893 188.35 15.573 187.63 14.933C186.95 14.293 186.61 13.453 186.61 12.413C186.61 11.373 186.95 10.553 187.63 9.95298C188.35 9.31298 189.23 8.99298 190.27 8.99298H214.81ZM255.583 34.973C255.583 38.253 254.843 41.153 253.363 43.673C251.923 46.153 249.963 48.093 247.483 49.493C245.043 50.893 242.303 51.593 239.263 51.593C236.223 51.593 233.463 50.893 230.983 49.493C228.543 48.093 226.583 46.153 225.103 43.673C223.663 41.153 222.943 38.253 222.943 34.973C222.943 31.693 223.663 28.813 225.103 26.333C226.583 23.813 228.543 21.853 230.983 20.453C233.463 19.013 236.223 18.293 239.263 18.293C242.303 18.293 245.043 19.013 247.483 20.453C249.963 21.853 251.923 23.813 253.363 26.333C254.843 28.813 255.583 31.693 255.583 34.973ZM248.383 34.973C248.383 32.933 247.963 31.173 247.123 29.693C246.323 28.173 245.223 26.993 243.823 26.153C242.463 25.313 240.943 24.893 239.263 24.893C237.583 24.893 236.043 25.313 234.643 26.153C233.283 26.993 232.183 28.173 231.343 29.693C230.543 31.173 230.143 32.933 230.143 34.973C230.143 36.973 230.543 38.733 231.343 40.253C232.183 41.733 233.283 42.893 234.643 43.733C236.043 44.573 237.583 44.993 239.263 44.993C240.943 44.993 242.463 44.573 243.823 43.733C245.223 42.893 246.323 41.733 247.123 40.253C247.963 38.733 248.383 36.973 248.383 34.973ZM279.044 18.293C282.004 18.293 284.244 18.913 285.764 20.153C287.324 21.393 288.384 23.053 288.944 25.133C289.544 27.173 289.844 29.453 289.844 31.973V47.333C289.844 48.373 289.504 49.253 288.824 49.973C288.144 50.653 287.284 50.993 286.244 50.993C285.204 50.993 284.344 50.653 283.664 49.973C282.984 49.253 282.644 48.373 282.644 47.333V31.973C282.644 30.653 282.464 29.473 282.104 28.433C281.784 27.353 281.184 26.493 280.304 25.853C279.424 25.213 278.164 24.893 276.524 24.893C274.924 24.893 273.564 25.213 272.444 25.853C271.364 26.493 270.524 27.353 269.924 28.433C269.364 29.473 269.084 30.653 269.084 31.973V47.333C269.084 48.373 268.744 49.253 268.064 49.973C267.384 50.653 266.524 50.993 265.484 50.993C264.444 50.993 263.584 50.653 262.904 49.973C262.224 49.253 261.884 48.373 261.884 47.333V22.553C261.884 21.513 262.224 20.653 262.904 19.973C263.584 19.253 264.444 18.893 265.484 18.893C266.524 18.893 267.384 19.253 268.064 19.973C268.744 20.653 269.084 21.513 269.084 22.553V25.133L268.184 24.953C268.544 24.273 269.064 23.553 269.744 22.793C270.424 21.993 271.224 21.253 272.144 20.573C273.064 19.893 274.104 19.353 275.264 18.953C276.424 18.513 277.684 18.293 279.044 18.293ZM312.747 51.593C309.347 51.593 306.387 50.893 303.867 49.493C301.387 48.053 299.467 46.113 298.107 43.673C296.787 41.233 296.127 38.473 296.127 35.393C296.127 31.793 296.847 28.733 298.287 26.213C299.767 23.653 301.687 21.693 304.047 20.333C306.407 18.973 308.907 18.293 311.547 18.293C313.587 18.293 315.507 18.713 317.307 19.553C319.147 20.393 320.767 21.553 322.167 23.033C323.567 24.473 324.667 26.153 325.467 28.073C326.307 29.993 326.727 32.033 326.727 34.193C326.687 35.153 326.307 35.933 325.587 36.533C324.867 37.133 324.027 37.433 323.067 37.433H300.147L298.347 31.433H320.367L319.047 32.633V31.013C318.967 29.853 318.547 28.813 317.787 27.893C317.067 26.973 316.147 26.253 315.027 25.733C313.947 25.173 312.787 24.893 311.547 24.893C310.347 24.893 309.227 25.053 308.187 25.373C307.147 25.693 306.247 26.233 305.487 26.993C304.727 27.753 304.127 28.773 303.687 30.053C303.247 31.333 303.027 32.953 303.027 34.913C303.027 37.073 303.467 38.913 304.347 40.433C305.267 41.913 306.427 43.053 307.827 43.853C309.267 44.613 310.787 44.993 312.387 44.993C313.867 44.993 315.047 44.873 315.927 44.633C316.807 44.393 317.507 44.113 318.027 43.793C318.587 43.433 319.087 43.133 319.527 42.893C320.247 42.533 320.927 42.353 321.567 42.353C322.447 42.353 323.167 42.653 323.727 43.253C324.327 43.853 324.627 44.553 324.627 45.353C324.627 46.433 324.067 47.413 322.947 48.293C321.907 49.173 320.447 49.953 318.567 50.633C316.687 51.273 314.747 51.593 312.747 51.593Z" fill="white"/>
<path fill-rule="evenodd" clip-rule="evenodd" d="M35.7154 18.2221L50.6478 16.5764C51.6778 16.4662 52.6083 17.2063 52.7138 18.2399C52.7605 18.6521 52.668 19.0642 52.457 19.4161L44.6921 32.2935L50.8857 46.0155C51.3127 46.9594 50.8933 48.0688 49.9516 48.4955C49.5784 48.6653 49.1541 48.709 48.7541 48.6129L34.1221 45.1788L23.0163 55.3054C22.7583 55.5415 22.4393 55.7004 22.0956 55.7641C21.7519 55.8277 21.3971 55.7935 21.0716 55.6655C20.746 55.5374 20.4627 55.3206 20.2538 55.0395C20.0448 54.7585 19.9186 54.4245 19.8894 54.0754L18.6143 39.0744L5.5601 31.6106C5.12784 31.3635 4.811 30.9547 4.6792 30.474C4.5474 29.9933 4.61142 29.48 4.85719 29.047C5.06103 28.6909 5.37496 28.4092 5.75686 28.2492L19.5995 22.4126L22.6334 7.67349C22.8478 6.65985 23.8398 6.00782 24.8503 6.21796C25.253 6.30117 25.6174 6.51564 25.886 6.82772L35.7154 18.2221ZM23.3057 28.2904C22.9104 28.6787 22.687 29.2068 22.6847 29.7583L22.6589 35.9969C22.6566 36.5484 22.8757 37.0783 23.2678 37.4699C23.6599 37.8615 24.193 38.0828 24.7499 38.0851L32.6231 38.1177C33.1324 38.1198 33.625 37.9386 34.0094 37.6077C34.3937 37.2769 34.6435 36.8189 34.7123 36.3191L37.9722 37.7696C38.1317 37.8406 38.3065 37.8709 38.4808 37.858C38.6551 37.8451 38.8234 37.7892 38.9704 37.6955C39.1174 37.6019 39.2385 37.4733 39.3226 37.3215C39.4067 37.1697 39.4512 36.9995 39.4521 36.8264L39.4842 29.0676C39.4848 28.8943 39.4417 28.7236 39.3588 28.571C39.2759 28.4184 39.1558 28.2888 39.0094 28.1938C38.863 28.0989 38.695 28.0417 38.5207 28.0275C38.3463 28.0132 38.1711 28.0423 38.0111 28.1122L34.7403 29.5357C34.6757 29.0354 34.4297 28.5753 34.0481 28.2413C33.6665 27.9073 33.1753 27.722 32.6661 27.7199L24.7928 27.6874C24.236 27.6851 23.7011 27.902 23.3057 28.2904Z" fill="white"/>
</svg>
